<svg width="62" height="60" viewBox="0 0 62 60" fill="none" xmlns="http://www.w3.org/2000/svg">
<path d="M61.093 36.9581L61.0932 36.9583L61.0994 36.9481C61.3603 36.5132 61.2688 35.993 60.9299 35.6541L60.9093 35.6335L60.8844 35.6181L53.8328 31.2685L53.8328 31.2685L53.8302 31.267C53.402 31.01 52.8446 31.0837 52.5646 31.5504C52.308 31.978 52.3811 32.5343 52.8458 32.8147L59.8753 37.2164C59.9879 37.3163 60.1692 37.399 60.3578 37.399C60.6655 37.399 60.9317 37.2 61.093 36.9581Z" fill="#5FB1AC" stroke="#5FB1AC" stroke-width="0.5"/>
<path d="M56.844 19.3763L56.8442 19.3761L56.8357 19.3683L44.909 8.4959L44.9073 8.49434L43.9897 7.64232L43.9271 7.57968L43.9208 7.57338L43.9141 7.56754L42.929 6.71378L41.9438 5.79432L41.9438 5.7943L41.941 5.7917C40.5114 4.49828 38.6065 3.75 36.6328 3.75C35.1408 3.75 33.715 4.15602 32.4912 4.90167C32.342 4.97742 32.2149 5.06916 32.1061 5.15285C32.0702 5.18043 32.0376 5.2061 32.007 5.23016C31.9368 5.28539 31.8774 5.33208 31.815 5.37365L31.8039 5.38106L31.7937 5.38961L31.402 5.71599L30.696 6.25904L29.926 5.709L29.9242 5.70775L29.2145 5.19154C29.1595 5.14093 29.093 5.09922 29.034 5.06974C29.0026 5.05405 28.9604 5.03517 28.9131 5.02136L28.9013 5.00947L28.8815 4.98976L28.858 4.97488C27.5658 4.15878 26.1356 3.75 24.6385 3.75C23.1449 3.75 21.6456 4.15707 20.4139 4.97824C20.0065 5.2498 19.6639 5.52364 19.3213 5.86621L19.2631 5.92444L17.6238 7.30142L17.6237 7.30128L17.6165 7.30786L16.8915 7.96689L16.8914 7.96679L16.8854 7.97261L5.09267 19.436C4.40003 20.0558 4.33873 21.1125 4.7851 21.8565L4.78501 21.8565L4.78908 21.8629L10.4567 30.6939L10.4573 30.6948C14.3932 36.7654 21.4592 40.5624 28.9881 40.5624H32.415C39.7432 40.5624 46.4763 37.098 50.5445 31.3625L50.5457 31.3608L57.0701 22.0026L57.0701 22.0027L57.073 21.9983C57.667 21.1073 57.5205 20.0528 56.844 19.3763ZM55.6338 20.8261L55.6181 20.8418L55.6054 20.8599L49.0811 30.2181L49.0805 30.2189C45.4393 35.4857 39.1257 38.6785 32.4809 38.6785H28.9881C22.0162 38.6785 15.5745 35.2905 11.9988 29.6344L11.9979 29.633L6.33937 20.8162C6.3299 20.7931 6.32429 20.7623 6.32739 20.7312C6.33062 20.6989 6.34228 20.6732 6.36144 20.6536L18.2192 9.19102L18.9413 8.53457L18.9414 8.53463L18.946 8.53024L20.4617 7.08038L20.4613 7.07994C20.4618 7.07977 20.4623 7.0796 20.4627 7.07942L20.4642 7.07796L20.465 7.07723L20.4653 7.07686L20.4655 7.07668L20.4656 7.07657L20.4658 7.07641L20.4667 7.07549L20.4739 7.06827L20.5316 7.0106C20.7801 6.7621 21.0945 6.50957 21.353 6.3153C22.3652 5.68502 23.5021 5.37035 24.6385 5.37035C25.7707 5.37035 26.9035 5.68271 27.9128 6.30835C27.9597 6.34998 28.0141 6.3862 28.0507 6.41052L28.0586 6.41576C28.1152 6.45347 28.1407 6.47176 28.1523 6.48337L28.1662 6.49724L28.182 6.50878L28.907 7.036L28.9069 7.03602L28.9095 7.03783L30.4912 8.15817L30.4911 8.15826L30.497 8.16218L30.6947 8.29399L30.8419 8.3921L30.9834 8.28597L31.5106 7.89056L31.5107 7.89071L31.5182 7.88459L32.5727 7.02785L32.5727 7.02786L32.5751 7.02588L32.9602 6.70492L33.5373 6.32024C34.4866 5.75193 35.6264 5.43625 36.6987 5.43625C38.1565 5.43625 39.6091 5.94289 40.7448 7.01558L40.7459 7.01658L41.7345 7.93922L41.7343 7.93935L41.7413 7.94538L42.7231 8.79629L42.7827 8.85587L42.7826 8.856L42.7894 8.8623L43.712 9.71904L43.7137 9.72059L55.5866 20.5439C55.5866 20.5443 55.5867 20.5446 55.5868 20.545C55.6132 20.6488 55.6306 20.7172 55.6355 20.7765C55.6381 20.8078 55.6354 20.8216 55.6343 20.8254C55.6341 20.8262 55.6351 20.8248 55.6338 20.8261Z" fill="#5FB1AC" stroke="#5FB1AC" stroke-width="0.5"/>
<path d="M52.5895 45.7478L52.5956 45.7549L52.6021 45.7614C52.7914 45.9507 53.0588 46.0323 53.3061 46.0323C53.3089 46.0323 53.3117 46.0323 53.3145 46.0323C53.4459 46.0324 53.6571 46.0326 53.856 45.8488C54.3281 45.5424 54.2878 44.9031 53.9513 44.5583L48.6187 38.3698L48.6126 38.3628L48.6061 38.3563C48.2797 38.0298 47.7226 37.8976 47.3299 38.2904C47.0054 38.6148 46.8728 39.1671 47.257 39.5595L52.5895 45.7478Z" fill="#5FB1AC" stroke="#5FB1AC" stroke-width="0.5"/>
<path d="M43.7504 51.7658H43.7751L43.7994 51.761C44.0504 51.7108 44.2392 51.5387 44.342 51.3445C44.4399 51.1596 44.4777 50.9186 44.3805 50.7024L42.0161 42.4928C41.9627 42.2454 41.7914 42.0629 41.5981 41.9556C41.4036 41.8475 41.164 41.8016 40.9374 41.8458C40.3891 41.9396 40.1045 42.4918 40.2842 42.963L42.6535 51.1242L42.6599 51.146L42.67 51.1663C42.8319 51.49 43.1697 51.7658 43.5527 51.7658H43.553H43.5534H43.5538H43.5542H43.5546H43.555H43.5554H43.5558H43.5561H43.5565H43.5569H43.5573H43.5577H43.5581H43.5585H43.5588H43.5592H43.5596H43.56H43.5604H43.5608H43.5612H43.5615H43.5619H43.5623H43.5627H43.5631H43.5635H43.5639H43.5642H43.5646H43.565H43.5654H43.5658H43.5662H43.5666H43.5669H43.5673H43.5677H43.5681H43.5685H43.5689H43.5693H43.5697H43.57H43.5704H43.5708H43.5712H43.5716H43.572H43.5724H43.5727H43.5731H43.5735H43.5739H43.5743H43.5747H43.5751H43.5754H43.5758H43.5762H43.5766H43.577H43.5774H43.5778H43.5781H43.5785H43.5789H43.5793H43.5797H43.5801H43.5805H43.5809H43.5812H43.5816H43.582H43.5824H43.5828H43.5832H43.5836H43.5839H43.5843H43.5847H43.5851H43.5855H43.5859H43.5863H43.5866H43.587H43.5874H43.5878H43.5882H43.5886H43.589H43.5893H43.5897H43.5901H43.5905H43.5909H43.5913H43.5917H43.592H43.5924H43.5928H43.5932H43.5936H43.594H43.5944H43.5948H43.5951H43.5955H43.5959H43.5963H43.5967H43.5971H43.5975H43.5978H43.5982H43.5986H43.599H43.5994H43.5998H43.6002H43.6005H43.6009H43.6013H43.6017H43.6021H43.6025H43.6029H43.6032H43.6036H43.604H43.6044H43.6048H43.6052H43.6056H43.606H43.6063H43.6067H43.6071H43.6075H43.6079H43.6083H43.6087H43.609H43.6094H43.6098H43.6102H43.6106H43.611H43.6114H43.6117H43.6121H43.6125H43.6129H43.6133H43.6137H43.6141H43.6144H43.6148H43.6152H43.6156H43.616H43.6164H43.6168H43.6171H43.6175H43.6179H43.6183H43.6187H43.6191H43.6195H43.6199H43.6202H43.6206H43.621H43.6214H43.6218H43.6222H43.6226H43.6229H43.6233H43.6237H43.6241H43.6245H43.6249H43.6253H43.6256H43.626H43.6264H43.6268H43.6272H43.6276H43.628H43.6283H43.6287H43.6291H43.6295H43.6299H43.6303H43.6307H43.6311H43.6314H43.6318H43.6322H43.6326H43.633H43.6334H43.6338H43.6341H43.6345H43.6349H43.6353H43.6357H43.6361H43.6365H43.6368H43.6372H43.6376H43.638H43.6384H43.6388H43.6392H43.6395H43.6399H43.6403H43.6407H43.6411H43.6415H43.6419H43.6422H43.6426H43.643H43.6434H43.6438H43.6442H43.6446H43.645H43.6453H43.6457H43.6461H43.6465H43.6469H43.6473H43.6477H43.648H43.6484H43.6488H43.6492H43.6496H43.65H43.6504H43.6507H43.6511H43.6515H43.6519H43.6523H43.6527H43.6531H43.6534H43.6538H43.6542H43.6546H43.655H43.6554H43.6558H43.6562H43.6565H43.6569H43.6573H43.6577H43.6581H43.6585H43.6589H43.6592H43.6596H43.66H43.6604H43.6608H43.6612H43.6616H43.6619H43.6623H43.6627H43.6631H43.6635H43.6639H43.6643H43.6646H43.665H43.6654H43.6658H43.6662H43.6666H43.667H43.6673H43.6677H43.6681H43.6685H43.6689H43.6693H43.6697H43.6701H43.6704H43.6708H43.6712H43.6716H43.672H43.6724H43.6728H43.6731H43.6735H43.6739H43.6743H43.6747H43.6751H43.6755H43.6758H43.6762H43.6766H43.677H43.6774H43.6778H43.6782H43.6785H43.6789H43.6793H43.6797H43.6801H43.6805H43.6809H43.6813H43.6816H43.682H43.6824H43.6828H43.6832H43.6836H43.684H43.6843H43.6847H43.6851H43.6855H43.6859H43.6863H43.6867H43.687H43.6874H43.6878H43.6882H43.6886H43.689H43.6894H43.6897H43.6901H43.6905H43.6909H43.6913H43.6917H43.6921H43.6924H43.6928H43.6932H43.6936H43.694H43.6944H43.6948H43.6952H43.6955H43.6959H43.6963H43.6967H43.6971H43.6975H43.6979H43.6982H43.6986H43.699H43.6994H43.6998H43.7002H43.7006H43.7009H43.7013H43.7017H43.7021H43.7025H43.7029H43.7033H43.7036H43.704H43.7044H43.7048H43.7052H43.7056H43.706H43.7064H43.7067H43.7071H43.7075H43.7079H43.7083H43.7087H43.7091H43.7094H43.7098H43.7102H43.7106H43.711H43.7114H43.7118H43.7121H43.7125H43.7129H43.7133H43.7137H43.7141H43.7145H43.7148H43.7152H43.7156H43.716H43.7164H43.7168H43.7172H43.7175H43.7179H43.7183H43.7187H43.7191H43.7195H43.7199H43.7203H43.7206H43.721H43.7214H43.7218H43.7222H43.7226H43.723H43.7233H43.7237H43.7241H43.7245H43.7249H43.7253H43.7257H43.726H43.7264H43.7268H43.7272H43.7276H43.728H43.7284H43.7287H43.7291H43.7295H43.7299H43.7303H43.7307H43.7311H43.7315H43.7318H43.7322H43.7326H43.733H43.7334H43.7338H43.7342H43.7345H43.7349H43.7353H43.7357H43.7361H43.7365H43.7369H43.7372H43.7376H43.738H43.7384H43.7388H43.7392H43.7396H43.7399H43.7403H43.7407H43.7411H43.7415H43.7419H43.7423H43.7426H43.743H43.7434H43.7438H43.7442H43.7446H43.745H43.7454H43.7457H43.7461H43.7465H43.7469H43.7473H43.7477H43.7481H43.7484H43.7488H43.7492H43.7496H43.75H43.7504Z" fill="#5FB1AC" stroke="#5FB1AC" stroke-width="0.5"/>
<path d="M31.8742 52.3067V43.8712C31.8742 43.3217 31.4162 42.9622 30.9652 42.9622C30.5141 42.9622 30.0562 43.3217 30.0562 43.8712V52.3067C30.0562 52.5528 30.1767 52.7779 30.3353 52.9366C30.494 53.0953 30.7191 53.2158 30.9652 53.2158C31.2112 53.2158 31.4364 53.0953 31.595 52.9366C31.7537 52.7779 31.8742 52.5528 31.8742 52.3067Z" fill="#5FB1AC" stroke="#5FB1AC" stroke-width="0.5"/>
<path d="M21.5834 42.9525L21.5864 42.9422L21.5885 42.9318C21.6809 42.4694 21.4018 42.0306 20.9748 41.8598C20.4897 41.6657 19.9575 41.966 19.7881 42.4742L19.7879 42.4741L19.7852 42.4836L17.4127 50.6555L17.4097 50.6657L17.4076 50.6762C17.3151 51.1385 17.5943 51.5774 18.0212 51.7482L18.0659 51.766H18.1141H18.1145H18.1149H18.1152H18.1156H18.116H18.1164H18.1168H18.1172H18.1176H18.1179H18.1183H18.1187H18.1191H18.1195H18.1199H18.1203H18.1206H18.121H18.1214H18.1218H18.1222H18.1226H18.123H18.1234H18.1237H18.1241H18.1245H18.1249H18.1253H18.1257H18.1261H18.1264H18.1268H18.1272H18.1276H18.128H18.1284H18.1288H18.1291H18.1295H18.1299H18.1303H18.1307H18.1311H18.1315H18.1318H18.1322H18.1326H18.133H18.1334H18.1338H18.1342H18.1345H18.1349H18.1353H18.1357H18.1361H18.1365H18.1369H18.1373H18.1376H18.138H18.1384H18.1388H18.1392H18.1396H18.14H18.1403H18.1407H18.1411H18.1415H18.1419H18.1423H18.1427H18.143H18.1434H18.1438H18.1442H18.1446H18.145H18.1454H18.1457H18.1461H18.1465H18.1469H18.1473H18.1477H18.1481H18.1485H18.1488H18.1492H18.1496H18.15H18.1504H18.1508H18.1512H18.1515H18.1519H18.1523H18.1527H18.1531H18.1535H18.1539H18.1542H18.1546H18.155H18.1554H18.1558H18.1562H18.1566H18.1569H18.1573H18.1577H18.1581H18.1585H18.1589H18.1593H18.1596H18.16H18.1604H18.1608H18.1612H18.1616H18.162H18.1624H18.1627H18.1631H18.1635H18.1639H18.1643H18.1647H18.1651H18.1654H18.1658H18.1662H18.1666H18.167H18.1674H18.1678H18.1681H18.1685H18.1689H18.1693H18.1697H18.1701H18.1705H18.1708H18.1712H18.1716H18.172H18.1724H18.1728H18.1732H18.1736H18.1739H18.1743H18.1747H18.1751H18.1755H18.1759H18.1763H18.1766H18.177H18.1774H18.1778H18.1782H18.1786H18.179H18.1793H18.1797H18.1801H18.1805H18.1809H18.1813H18.1817H18.182H18.1824H18.1828H18.1832H18.1836H18.184H18.1844H18.1847H18.1851H18.1855H18.1859H18.1863H18.1867H18.1871H18.1875H18.1878H18.1882H18.1886H18.189H18.1894H18.1898H18.1902H18.1905H18.1909H18.1913H18.1917H18.1921H18.1925H18.1929H18.1932H18.1936H18.194H18.1944H18.1948H18.1952H18.1956H18.1959H18.1963H18.1967H18.1971H18.1975H18.1979H18.1983H18.1987H18.199H18.1994H18.1998H18.2002H18.2006H18.201H18.2014H18.2017H18.2021H18.2025H18.2029H18.2033H18.2037H18.2041H18.2044H18.2048H18.2052H18.2056H18.206H18.2064H18.2068H18.2071H18.2075H18.2079H18.2083H18.2087H18.2091H18.2095H18.2098H18.2102H18.2106H18.211H18.2114H18.2118H18.2122H18.2126H18.2129H18.2133H18.2137H18.2141H18.2145H18.2149H18.2153H18.2156H18.216H18.2164H18.2168H18.2172H18.2176H18.218H18.2183H18.2187H18.2191H18.2195H18.2199H18.2203H18.2207H18.221H18.2214H18.2218H18.2222H18.2226H18.223H18.2234H18.2237H18.2241H18.2245H18.2249H18.2253H18.2257H18.2261H18.2265H18.2268H18.2272H18.2276H18.228H18.2284H18.2288H18.2292H18.2295H18.2299H18.2303H18.2307H18.2311H18.2315H18.2319H18.2322H18.2326H18.233H18.2334H18.2338H18.2342H18.2346H18.2349H18.2353H18.2357H18.2361H18.2365H18.2369H18.2373H18.2377H18.238H18.2384H18.2388H18.2392H18.2396H18.24H18.2404H18.2407H18.2411H18.2415H18.2419H18.2423H18.2427H18.2431H18.2434H18.2438H18.2442H18.2446H18.245H18.2454H18.2458H18.2461H18.2465H18.2469H18.2473H18.2477H18.2481H18.2485H18.2488H18.2492H18.2496H18.25H18.2504H18.2508H18.2512H18.2516H18.2519H18.2523H18.2527H18.2531H18.2535H18.2539H18.2543H18.2546H18.255H18.2554H18.2558H18.2562H18.2566H18.257H18.2573H18.2577H18.2581H18.2585H18.2589H18.2593H18.2597H18.26H18.2604H18.2608H18.2612H18.2616H18.262H18.2624H18.2628H18.2631H18.2635H18.2639H18.2643H18.2647H18.2651H18.2655H18.2658H18.2662H18.2666H18.267H18.2674H18.2678H18.2682H18.2685H18.2689H18.2693H18.2697H18.2701H18.2705H18.2709H18.2712H18.2716H18.272H18.2724H18.2728H18.2732H18.2736H18.2739H18.2743H18.2747H18.2751H18.2755H18.2759H18.2763H18.2767H18.277H18.2774H18.2778H18.2782H18.2786H18.279H18.2794H18.2797H18.2801H18.2805H18.2809H18.2813H18.2817H18.2821H18.2824H18.2828H18.2832H18.2836H18.284H18.2844H18.2848H18.2851H18.2855H18.2859H18.2863H18.2867H18.2871H18.2875H18.2879H18.2882H18.2886H18.289H18.2894H18.2898H18.2902H18.2906H18.2909H18.2913H18.2917H18.2921H18.2925H18.2929H18.2933H18.2936H18.294H18.2944H18.2948H18.2952H18.2956H18.296H18.2963H18.2967H18.2971H18.2975H18.2979H18.2983H18.2987H18.299H18.2994H18.2998H18.3002H18.3006H18.301H18.3014H18.3018H18.3021H18.3025H18.3029H18.3033H18.3037H18.3041H18.3045H18.3048H18.3052H18.3056H18.306H18.3064H18.3068H18.3072H18.3075H18.3079H18.3083H18.3087H18.3091H18.3095H18.3099H18.3102H18.3106H18.311H18.3114H18.3118C18.7357 51.766 19.1122 51.5095 19.2121 51.1203L21.5834 42.9525Z" fill="#5FB1AC" stroke="#5FB1AC" stroke-width="0.5"/>
<path d="M49.3522 20.0802L44.08 17.1805L43.3551 16.7851L38.5441 14.0831C38.2805 13.9513 38.0169 13.8195 37.8192 13.7536C37.6215 13.6877 37.3579 13.6218 37.0943 13.5559C36.5671 13.4241 36.0398 13.4241 35.4467 13.4241C35.3149 13.4241 35.1831 13.4241 35.0513 13.4241C34.6559 13.4241 34.3264 13.49 33.931 13.5559C33.6673 13.6218 33.4696 13.6877 33.206 13.7536C33.0083 13.8195 32.7447 13.8854 32.547 14.0172C32.2175 14.149 31.888 14.2808 31.5585 14.3467C31.3607 14.3467 31.2289 14.4126 31.0312 14.4126C30.9653 14.4126 30.8994 14.4126 30.8335 14.4126C30.3722 14.4126 29.9768 14.2808 29.5814 14.149L29.2519 13.8854C28.461 13.5559 27.4725 13.3582 26.5498 13.3582C26.1544 13.3582 25.6931 13.3582 25.2977 13.49C25.0341 13.5559 24.8364 13.5559 24.5728 13.6218C24.1114 13.7536 23.6501 13.9513 23.2547 14.149L18.971 16.6533L18.2461 17.0487L13.0398 20.0802C12.8421 20.212 12.7762 20.4757 12.9739 20.6734L16.928 24.4298C17.7189 25.1548 18.6415 25.8138 19.696 26.341C20.0255 26.4728 20.355 26.6705 20.6845 26.8023C23.2547 27.9227 26.418 28.7135 29.7132 28.7135H32.2834C35.7103 28.7135 39.0714 27.8568 41.6416 26.6705C41.6416 26.7364 41.6416 26.6046 41.6416 26.6705C41.9711 26.5387 42.3006 26.341 42.6301 26.1433C43.421 25.682 44.1459 25.2207 44.739 24.6934L49.3522 20.6734C49.6158 20.5416 49.6158 20.212 49.3522 20.0802ZM31.8679 15.5816C31.802 15.5816 31.9338 15.5816 31.8679 15.5816C32.3292 15.5157 32.6788 15.4011 33.1401 15.2034C33.7992 14.8739 34.4069 14.8022 35.2637 14.8022C35.2637 14.8022 35.4353 14.808 35.8307 14.8739C35.8966 14.8739 36.0284 14.9398 36.1602 14.9398V17.7077C36.1602 18.1691 35.7648 18.5645 35.3035 18.5645H32.4811C32.0198 18.5645 31.8679 18.1518 31.8679 17.6905V15.5816ZM26.2977 14.808C26.3636 14.808 26.5498 14.7421 26.5498 14.7421C26.8794 14.6762 27.459 14.7421 27.459 14.7421C27.459 14.7421 28.1315 14.808 28.7246 15.0716L29.0541 15.2034C29.5814 15.467 29.7867 15.586 30.3798 15.586V17.6949C30.3798 18.1562 30.1723 18.5645 29.7109 18.5645C29.7109 18.5645 27.6157 18.5645 27.1544 18.5645C26.6931 18.5645 26.2977 18.1691 26.2977 17.7077C26.2977 17.2464 26.2318 14.808 26.2977 14.808ZM19.8278 18.5645C19.4982 18.5645 19.2346 18.3668 19.0369 18.1032L19.6301 17.7736L23.9137 15.2693C24.1114 15.1375 24.3091 15.0716 24.5069 15.0057V17.7077C24.5069 18.1691 24.1114 18.5645 23.6501 18.5645H19.8278ZM32.3493 27.2636H29.7791C26.9453 27.2636 24.1114 26.7364 21.8048 25.8797C22.2003 24.5616 23.7819 23.5731 25.6272 23.5731L31.5585 23.9026L36.8307 23.5731C38.676 23.5731 40.1917 24.4957 40.653 25.8138C38.2146 26.7364 35.3149 27.2636 32.3493 27.2636ZM42.5642 18.5645H38.7419C38.2805 18.5645 37.8851 18.235 37.8851 17.8395V15.2034C37.951 15.2034 37.951 15.2034 38.0169 15.2693L42.8278 17.9714L43.3551 18.235C43.1573 18.4327 42.8937 18.5645 42.5642 18.5645Z" fill="#5FB1AC"/>
<path d="M14.6005 38.2904L14.5907 38.2806L14.5799 38.2719C14.1373 37.9179 13.5992 38.0154 13.2584 38.3563L13.2518 38.3628L13.2458 38.3698L7.91322 44.5582C7.52908 44.9506 7.66168 45.5029 7.98614 45.8273L8.01483 45.856L8.05111 45.8741C8.19707 45.9471 8.43578 46.0323 8.62424 46.0323C8.87157 46.0323 9.13894 45.9507 9.32824 45.7614L9.33479 45.7549L9.34085 45.7478L14.6734 39.5594C15.0575 39.1671 14.9249 38.6148 14.6005 38.2904Z" fill="#5FB1AC" stroke="#5FB1AC" stroke-width="0.5"/>
<path d="M9.15079 32.8806L9.16046 32.8746L9.16955 32.8678C9.51662 32.6075 9.70681 32.0752 9.43163 31.6165C9.29808 31.394 9.0775 31.2384 8.84952 31.1814C8.63533 31.1278 8.37267 31.1562 8.19414 31.3564L1.17887 35.6835C0.72135 35.9591 0.64276 36.5017 0.88408 36.9265C0.947254 37.0878 1.07611 37.2026 1.19943 37.2745C1.33135 37.3515 1.48969 37.3992 1.63843 37.3992C1.75312 37.3992 1.84103 37.3686 1.91499 37.3316C1.94503 37.3166 1.9744 37.2996 1.99779 37.2861C2.00003 37.2848 2.0022 37.2836 2.00432 37.2823C2.03071 37.2671 2.05399 37.2539 2.07975 37.241L2.08971 37.236L2.09919 37.2302L9.15079 32.8806Z" fill="#5FB1AC" stroke="#5FB1AC" stroke-width="0.5"/>
</svg>
