<svg width="60" height="60" viewBox="0 0 60 60" fill="none" xmlns="http://www.w3.org/2000/svg">
<path fill-rule="evenodd" clip-rule="evenodd" d="M35.1573 18.5911H34.9021C35.1573 18.0169 35.3487 17.3789 35.3487 16.677V15.3371C35.3487 12.8488 33.3708 10.8708 30.8824 10.8708H29.6063C30.1167 9.59475 30.1806 7.80824 29.0959 5.7027C29.0596 5.64828 28.9872 5.53195 28.8853 5.3682C28.2704 4.38017 26.5812 1.66582 25.2676 0.406961C24.8848 0.0241367 24.3106 -0.103472 23.8001 0.0879408C23.2897 0.279353 22.9069 0.725982 22.8431 1.23641C22.7155 2.06587 22.205 3.97999 20.6737 3.97999H17.3559C14.8038 3.97999 12.762 6.08553 12.762 8.7015C12.762 9.46715 12.9534 10.2328 13.2725 10.8708H11.7412C9.2528 10.8708 7.27488 12.8488 7.27488 15.3371V16.677C7.27488 17.3789 7.46629 18.0169 7.72151 18.5911H7.46629C4.97793 18.5911 3 20.5691 3 23.0574V24.3973C3 26.5666 4.5951 28.417 6.70064 28.7998V35.4992C6.70064 36.5839 7.53009 37.4133 8.61476 37.4133H9.95465L13.1449 55.5337C13.2087 58.0859 14.5485 60 16.3351 60H26.3523C28.0282 60 29.3111 58.3155 29.5162 56H26.9475C26.8221 56.8483 26.4574 57.3428 26.3523 57.4478H16.3989C16.2075 57.384 15.697 56.6184 15.697 55.4061L12.5706 37.4133H30.1167L29.3112 42H31.9252L32.7327 37.4133H34.0726C35.1573 37.4133 35.9867 36.5839 35.9867 35.4992V28.8636C38.0923 28.4808 39.6874 26.6943 39.6874 24.4611V23.1212C39.6236 20.6329 37.6456 18.5911 35.1573 18.5911ZM15.2504 8.7015C15.2504 7.48922 16.2075 6.53216 17.3559 6.53216H20.6737C22.4603 6.53216 23.9278 5.51129 24.7572 3.72478C25.6505 4.93705 26.5437 6.34074 26.8627 6.97879C28.075 9.21193 27.118 10.4242 26.6075 10.8708H17.2921C16.1436 10.8708 15.2504 9.91377 15.2504 8.7015ZM9.82704 16.677V15.3371C9.82704 14.2525 10.6565 13.423 11.7412 13.423H30.8824C31.9671 13.423 32.7965 14.2525 32.7965 15.3371V16.677C32.7965 17.7617 31.9671 18.5911 30.8824 18.5911H11.7412C10.6565 18.5911 9.82704 17.7617 9.82704 16.677ZM33.4346 34.8612H9.2528V28.8636H33.4346V34.8612ZM37.0714 24.4611C37.0714 25.5458 36.2419 26.3752 35.1573 26.3752H7.46629C6.38162 26.3752 5.55216 25.5458 5.55216 24.4611V23.1212C5.55216 22.0366 6.38162 21.2071 7.46629 21.2071H35.1573C36.2419 21.2071 37.0714 22.0366 37.0714 23.1212V24.4611Z" fill="#5FB1AC"/>
<path d="M55.2595 41.414C55.2595 40.0519 56.1254 39.3422 56.6992 38.8724C57.2319 38.4352 57.3664 38.2818 57.3664 37.9591C57.3664 37.6364 57.2326 37.4832 56.6992 37.0461C56.1254 36.5762 55.2595 35.8662 55.2595 34.5045C55.2595 33.1427 56.1258 32.4331 56.6992 31.9636C57.2323 31.5271 57.3664 31.3744 57.3664 31.0534C57.3664 30.774 57.4774 30.5061 57.6749 30.3085C57.8725 30.111 58.1404 30 58.4198 30C58.6992 30 58.9672 30.111 59.1647 30.3085C59.3623 30.5061 59.4733 30.774 59.4733 31.0534C59.4733 32.4152 58.607 33.1245 58.0336 33.594C57.5005 34.0304 57.3664 34.1814 57.3664 34.5045C57.3664 34.8275 57.5002 34.9803 58.0336 35.4175C58.6073 35.8876 59.4733 36.5973 59.4733 37.9594C59.4733 39.3207 58.6077 40.0303 58.0346 40.5001L58.0336 40.501C57.5005 40.9392 57.3664 41.0923 57.3664 41.414C57.3664 41.6934 57.2554 41.9613 57.0578 42.1589C56.8603 42.3564 56.5923 42.4674 56.313 42.4674C56.0336 42.4674 55.7656 42.3564 55.5681 42.1589C55.3705 41.9613 55.2595 41.6934 55.2595 41.414Z" fill="#5FB1AC"/>
<path fill-rule="evenodd" clip-rule="evenodd" d="M20.0534 44.469H58.9466C59.226 44.469 59.4939 44.58 59.6915 44.7775C59.889 44.9751 60 45.243 60 45.5224V52.4049C60 52.6843 59.889 52.9522 59.6915 53.1498C59.4939 53.3473 59.226 53.4583 58.9466 53.4583H20.0534C19.774 53.4583 19.5061 53.3473 19.3085 53.1498C19.111 52.9522 19 52.6843 19 52.4049V45.5224C19 45.243 19.111 44.9751 19.3085 44.7775C19.5061 44.58 19.774 44.469 20.0534 44.469ZM53.6794 51.3514V46.5759H31.6412V51.3514H53.6794ZM29.5344 46.5759H21.1069V51.3514H29.5344V46.5759ZM55.7863 51.3514H57.8931V46.5759H55.7863V51.3514Z" fill="#5FB1AC"/>
</svg>
