<svg width="62" height="62" viewBox="0 0 62 62" fill="none" xmlns="http://www.w3.org/2000/svg">
<path d="M13.1109 45.0643C12.8995 45.0819 12.7004 45.1706 12.5459 45.3159C12.3914 45.4612 12.2908 45.6546 12.2603 45.8645C12.1976 46.2486 10.7073 55.1849 9.9197 59.9072C9.89928 60.0287 9.90302 60.1531 9.93069 60.2731C9.95836 60.3932 10.0094 60.5066 10.081 60.6069C10.1525 60.7072 10.2431 60.7925 10.3476 60.8577C10.4521 60.923 10.5684 60.967 10.69 60.9873C10.8115 61.0076 10.9358 61.0037 11.0559 60.9759C11.1759 60.9481 11.2893 60.8969 11.3895 60.8252C11.4897 60.7536 11.5748 60.6629 11.64 60.5583C11.7051 60.4537 11.749 60.3373 11.7691 60.2158C12.3929 56.4771 12.8516 53.7277 13.1887 51.7044L14.6074 60.2158C14.6486 60.4608 14.7853 60.6795 14.9876 60.8237C15.1899 60.968 15.4412 61.026 15.6862 60.9852C15.9313 60.9443 16.1501 60.8078 16.2946 60.6057C16.4391 60.4036 16.4974 60.1524 16.4568 59.9072L14.113 45.8444C14.0746 45.6122 13.9501 45.403 13.7644 45.2585C13.5787 45.1139 13.3454 45.0446 13.1109 45.0643Z" fill="#5FB1AC" stroke="#5FB1AC" stroke-width="0.5"/>
<path d="M49.7535 60.9992C49.9768 60.9989 50.1928 60.9189 50.3624 60.7735C50.532 60.6282 50.6442 60.427 50.6786 60.2063C51.3014 56.2232 51.7597 53.2934 52.0966 51.1368L53.5137 60.2063C53.5327 60.328 53.5755 60.4447 53.6396 60.5498C53.7037 60.6549 53.7878 60.7464 53.8873 60.819C53.9867 60.8916 54.0995 60.9438 54.2192 60.9728C54.3388 61.0018 54.463 61.007 54.5847 60.988C54.7063 60.969 54.823 60.9262 54.9282 60.8621C55.0333 60.798 55.1247 60.7138 55.1973 60.6144C55.2699 60.5149 55.3222 60.4022 55.3512 60.2825C55.3802 60.1629 55.3853 60.0387 55.3663 59.917L53.0225 44.9165C52.9878 44.694 52.8741 44.4914 52.7022 44.3458C52.5304 44.2002 52.3119 44.1213 52.0867 44.1236C51.8615 44.1259 51.6446 44.2091 51.4757 44.3582C51.3069 44.5072 51.1973 44.7121 51.1671 44.9353C51.1074 45.3253 49.615 54.8709 48.826 59.917C48.8053 60.0508 48.8138 60.1875 48.8508 60.3177C48.8879 60.4479 48.9528 60.5686 49.0409 60.6714C49.129 60.7742 49.2383 60.8567 49.3613 60.9133C49.4843 60.9699 49.6181 60.9992 49.7535 60.9992L49.7535 60.9992Z" fill="#5FB1AC" stroke="#5FB1AC" stroke-width="0.5"/>
<path d="M55.7428 11.8154C56.2392 10.9283 56.5664 9.95662 56.7076 8.94992C57.2586 5.09818 55.0855 1.55728 51.8631 1.05644C51.1594 0.956075 50.4428 0.997184 49.7551 1.17735C49.0675 1.35752 48.4228 1.67313 47.8587 2.10568C46.2734 3.34281 45.2434 5.15815 44.9946 7.1536C44.7564 8.73369 44.9987 10.3489 45.6899 11.7896L30.9234 11.7785C30.5541 11.7785 30.1883 11.8513 29.8471 11.9926C29.5059 12.134 29.1958 12.3411 28.9346 12.6023C28.6735 12.8635 28.4663 13.1736 28.3249 13.5148C28.1836 13.856 28.1108 14.2218 28.1108 14.5911C28.1108 14.9605 28.1836 15.3262 28.3249 15.6675C28.4663 16.0087 28.6735 16.3188 28.9346 16.5799C29.1958 16.8411 29.5059 17.0483 29.8471 17.1896C30.1883 17.331 30.5541 17.4037 30.9234 17.4037H41.8622L43.6894 38.1118C43.7016 38.2452 43.7423 38.3745 43.8089 38.4908C43.8755 38.6071 43.9664 38.7077 44.0753 38.7857L43.6585 60.043C43.6537 60.2916 43.7478 60.532 43.9201 60.7113C44.0924 60.8905 44.3289 60.994 44.5775 60.9989H44.5963C44.8417 60.9987 45.0772 60.9024 45.2524 60.7305C45.4275 60.5587 45.5283 60.325 45.5331 60.0797L45.9471 38.9669H55.5416C55.7356 39.5146 56.0943 39.9888 56.5685 40.3245C57.0427 40.6602 57.6092 40.841 58.1902 40.842C58.2211 40.842 58.2512 40.8384 58.2819 40.8374L58.6592 60.0797C58.664 60.325 58.7648 60.5587 58.94 60.7305C59.1151 60.9024 59.3506 60.9987 59.596 60.9989H59.6148C59.8634 60.994 60.0999 60.8905 60.2722 60.7113C60.4446 60.532 60.5386 60.2917 60.5338 60.043L60.1418 40.0503C60.414 39.7888 60.6306 39.475 60.7785 39.1277C60.9265 38.7804 61.0028 38.4068 61.0028 38.0294V17.422C61.0003 15.9948 60.4556 14.6218 59.4791 13.5809C58.5025 12.54 57.167 11.9089 55.7428 11.8154ZM46.8509 7.41912C47.0278 5.91948 47.7913 4.55091 48.9745 3.6127C49.5795 3.14347 50.3205 2.88337 51.0861 2.87155C51.2499 2.87146 51.4135 2.88416 51.5754 2.90955C53.7881 3.25334 55.2578 5.84388 54.8513 8.6844C54.6744 10.184 53.9109 11.5526 52.7277 12.4908C52.3641 12.7777 51.9462 12.9879 51.4992 13.1087C51.0522 13.2296 50.5853 13.2586 50.1268 13.194C47.9141 12.8502 46.4444 10.2596 46.8509 7.41912ZM59.1277 25.8415V38.0294C59.1277 38.278 59.0289 38.5165 58.8531 38.6923C58.6773 38.8681 58.4388 38.9669 58.1902 38.9669C57.9415 38.9669 57.7031 38.8681 57.5272 38.6923C57.3514 38.5165 57.2526 38.278 57.2526 38.0294V25.8415C57.2526 25.5928 57.1539 25.3544 56.978 25.1785C56.8022 25.0027 56.5637 24.9039 56.3151 24.9039C56.0664 24.9039 55.828 25.0027 55.6522 25.1785C55.4763 25.3544 55.3776 25.5928 55.3776 25.8415V37.0919H45.4819L43.6546 16.3838C43.634 16.1503 43.5268 15.933 43.3539 15.7747C43.181 15.6164 42.9551 15.5286 42.7207 15.5287H30.9234C30.6757 15.5274 30.4385 15.4281 30.2637 15.2525C30.0889 15.0769 29.9908 14.8392 29.9907 14.5915C29.9906 14.3437 30.0886 14.106 30.2632 13.9303C30.4379 13.7545 30.675 13.6551 30.9227 13.6536L47.0705 13.6657C47.8324 14.3956 48.7977 14.8772 49.839 15.0471C50.0925 15.0864 50.3485 15.1061 50.6049 15.1061C51.7755 15.0945 52.9112 14.7059 53.8435 13.9978C53.9801 13.8967 54.1081 13.7833 54.2368 13.6711L55.3803 13.6719C56.374 13.6739 57.3265 14.0697 58.0289 14.7726C58.7314 15.4755 59.1265 16.4283 59.1277 17.422V25.8415Z" fill="#5FB1AC" stroke="#5FB1AC" stroke-width="0.5"/>
<path d="M1.00001 18.8103V38.0296C0.998784 38.4841 1.10802 38.9321 1.31833 39.3351C1.52863 39.738 1.8337 40.0838 2.20727 40.3427C2.58085 40.6016 3.01174 40.7658 3.46287 40.8213C3.91399 40.8767 4.37183 40.8217 4.79698 40.661L5.21917 60.0822C5.22451 60.3272 5.32556 60.5603 5.50066 60.7317C5.67576 60.903 5.91101 60.9991 6.15603 60.9991H6.17685C6.42549 60.9936 6.66175 60.8896 6.8337 60.7099C7.00565 60.5302 7.0992 60.2896 7.09379 60.041L6.64586 39.4359H19.7302L19.2823 60.041C19.2769 60.2896 19.3704 60.5302 19.5424 60.7099C19.7143 60.8896 19.9506 60.9936 20.1992 60.9991H20.2201C20.4651 60.999 20.7003 60.903 20.8754 60.7316C21.0505 60.5603 21.1515 60.3271 21.1569 60.0822L21.5791 40.661C22.0043 40.8217 22.4621 40.8767 22.9132 40.8213C23.3644 40.7659 23.7952 40.6016 24.1688 40.3427C24.5424 40.0838 24.8475 39.738 25.0578 39.3351C25.2681 38.9321 25.3773 38.4841 25.3761 38.0296V18.8103C25.3741 17.0703 24.6821 15.4022 23.4517 14.1719C22.2214 12.9415 20.5532 12.2495 18.8133 12.2475H18.8036C19.3348 11.226 19.6501 10.1061 19.7298 8.95749C20.0163 4.83016 17.3152 1.26592 13.7085 1.01136C12.904 0.962135 12.0978 1.0732 11.3366 1.33811C10.5754 1.60303 9.87434 2.01651 9.27422 2.55455C7.71108 3.96528 6.76689 5.9352 6.64629 8.03735C6.53877 9.48928 6.8176 10.9438 7.45443 12.253C5.73405 12.2826 4.09399 12.9862 2.88698 14.2124C1.67996 15.4387 1.0024 17.0896 1.00001 18.8103ZM8.51682 8.16735C8.60186 6.56133 9.31595 5.05341 10.5045 3.96998C11.2746 3.27691 12.27 2.88685 13.3059 2.87224C13.3961 2.87224 13.4864 2.87545 13.5767 2.88185C16.1531 3.0636 18.0742 5.73061 17.8593 8.82746C17.7742 10.4335 17.0602 11.9414 15.8716 13.0248C15.4572 13.4009 14.9722 13.6907 14.4448 13.8775C13.9174 14.0643 13.358 14.1444 12.7994 14.113C10.223 13.9312 8.30189 11.2643 8.51682 8.16735ZM7.5628 14.1226H8.77401C9.79752 15.2024 11.1844 15.8653 12.6675 15.9835C12.8028 15.9931 12.9378 15.9978 13.0725 15.9977C14.5599 15.9836 15.9917 15.4303 17.1019 14.4403C17.2166 14.3406 17.3216 14.2298 17.4298 14.1226H18.8133C20.0561 14.124 21.2476 14.6184 22.1264 15.4972C23.0052 16.376 23.4996 17.5675 23.501 18.8103V38.0296C23.501 38.2783 23.4022 38.5167 23.2264 38.6926C23.0506 38.8684 22.8121 38.9672 22.5635 38.9672C22.3148 38.9672 22.0763 38.8684 21.9005 38.6926C21.7247 38.5167 21.6259 38.2783 21.6259 38.0296V25.8417C21.6259 25.5931 21.5271 25.3546 21.3513 25.1788C21.1755 25.003 20.937 24.9042 20.6884 24.9042C20.4397 24.9042 20.2013 25.003 20.0254 25.1788C19.8496 25.3546 19.7508 25.5931 19.7508 25.8417V37.5608H6.62526V25.8417C6.62526 25.5931 6.52648 25.3546 6.35066 25.1788C6.17483 25.003 5.93637 24.9042 5.68772 24.9042C5.43906 24.9042 5.2006 25.003 5.02477 25.1788C4.84895 25.3546 4.75017 25.5931 4.75017 25.8417V38.0296C4.75017 38.2783 4.6514 38.5167 4.47557 38.6926C4.29975 38.8684 4.06128 38.9672 3.81263 38.9672C3.56398 38.9672 3.32551 38.8684 3.14969 38.6926C2.97387 38.5167 2.87509 38.2783 2.87509 38.0296V18.8103C2.87652 17.5675 3.37086 16.376 4.24966 15.4972C5.12847 14.6183 6.31998 14.124 7.5628 14.1226Z" fill="#5FB1AC" stroke="#5FB1AC" stroke-width="0.5"/>
</svg>
