<svg width="60" height="60" viewBox="0 0 60 60" fill="none" xmlns="http://www.w3.org/2000/svg">
<path d="M30.6352 0V0.00417892C29.4344 -0.0408242 28.2204 0.312129 27.2072 1.07568H27.2029C25.5274 2.33897 24.7961 4.43853 25.2023 6.42483H20.7865C20.1948 6.43407 19.7225 6.9213 19.7318 7.51308L19.715 7.48797V8.56784H10.0715V8.57991L9 8.56784V58.9285C9.00006 59.5202 9.47975 59.9999 10.0715 60H50.7886C51.3804 59.9999 51.8601 59.5202 51.8601 58.9285V8.58233L50.7886 8.57145V8.56784H41.1451V7.48378L41.1284 7.50472C41.133 6.91618 40.6621 6.43407 40.0736 6.42483H35.6704C36.0434 4.5861 35.438 2.62421 33.9711 1.33101C33.0194 0.492021 31.8359 0.0460746 30.6352 0ZM30.5556 2.13882C31.2739 2.16606 31.9815 2.43166 32.5563 2.93826C33.7061 3.95191 33.9794 5.61808 33.2177 6.94803C32.9497 7.41779 33.0736 8.01352 33.5065 8.33764L33.5107 8.34181C33.5245 8.35191 33.5384 8.36168 33.5526 8.37111C33.5796 8.39055 33.6076 8.4087 33.6363 8.42553L33.6573 8.4339C33.8172 8.52248 33.9974 8.56859 34.1803 8.56784H39.0021V9.46355C38.9828 9.57995 38.9828 9.69874 39.0021 9.81514V13.7496C38.9828 13.866 38.9828 13.9848 39.0021 14.1012V14.9969H21.858V14.0928C21.8765 13.9791 21.8765 13.8632 21.858 13.7496V9.80677C21.8765 9.6931 21.8765 9.57721 21.858 9.46355V8.56784H26.6798C27.5249 8.58053 28.0514 7.65563 27.609 6.93547C27.588 6.86584 27.5599 6.79852 27.5253 6.73457C26.8675 5.35018 27.2724 3.71015 28.4963 2.78758C29.1084 2.3263 29.8374 2.11158 30.5556 2.13882ZM11.143 10.7108H19.715V12.8539H14.3575C13.7658 12.8539 13.2861 13.3336 13.286 13.9254V54.6425C13.2861 55.2342 13.7658 55.7139 14.3575 55.714H39.8769C40.2787 55.7883 40.6878 55.6276 40.9316 55.2996L47.1681 49.0673C47.4839 48.826 47.6402 48.4296 47.5741 48.0377V13.9254C47.5741 13.3336 47.0944 12.8539 46.5026 12.8539H41.1451V10.7108H49.7171V57.857H11.143V10.7108ZM15.429 14.9969H19.715V16.06C19.716 16.5236 20.0149 16.934 20.4559 17.0771C20.4875 17.0884 20.5196 17.0981 20.5521 17.1064H20.5814C20.5982 17.1068 20.6149 17.1068 20.6317 17.1064C20.6786 17.1165 20.7261 17.1235 20.774 17.1273H20.7866H40.0737C40.6654 17.1273 41.1451 16.6476 41.1452 16.0558L41.1451 14.9969H45.4311V47.1461H40.0736C39.4818 47.1462 39.0022 47.6259 39.0021 48.2176V53.571H15.429V14.9969ZM25.0935 21.4259C24.8154 21.4336 24.5512 21.5492 24.3568 21.7482L20.8075 25.2724L19.4095 23.887C18.3967 22.8383 16.8442 24.3993 17.8985 25.4063L20.0499 27.5452C20.4678 27.9607 21.1429 27.9607 21.5609 27.5452L25.8636 23.2675C26.565 22.5893 26.0689 21.4029 25.0935 21.4259ZM29.2665 21.4259C27.8378 21.4984 27.9466 23.6414 29.3753 23.5689H35.8043C37.2533 23.5895 37.2533 21.4054 35.8043 21.4259H29.3753C29.339 21.424 29.3027 21.424 29.2665 21.4259ZM29.2916 25.7119C27.8629 25.7844 27.9718 27.9274 29.4004 27.8549H42.1748C43.6238 27.8755 43.6238 25.6914 42.1748 25.7119H29.4004C29.3642 25.7101 29.3278 25.7101 29.2916 25.7119ZM25.0935 32.1409C24.8154 32.1486 24.5512 32.2642 24.3568 32.4632L20.8075 35.9874L19.4095 34.602C18.3967 33.5533 16.8442 35.1144 17.8985 36.1214L20.0499 38.2602C20.4679 38.6757 21.1429 38.6757 21.5609 38.2602L25.8636 33.9826C26.565 33.3043 26.0689 32.118 25.0935 32.1409H25.0935ZM29.2665 32.1409C27.8378 32.2135 27.9466 34.3565 29.3753 34.2839H35.8043C37.2533 34.3045 37.2533 32.1204 35.8043 32.1409H29.3753C29.339 32.1391 29.3027 32.1391 29.2665 32.1409ZM29.2916 36.4269C27.8629 36.4995 27.9718 38.6425 29.4004 38.5699H42.1748C43.6238 38.5905 43.6238 36.4064 42.1748 36.4269H29.4004C29.3642 36.4251 29.3278 36.4251 29.2916 36.4269ZM25.0935 42.8559C24.8154 42.8637 24.5512 42.9793 24.3568 43.1782L20.8075 46.7025L19.4095 45.3171C18.3967 44.2684 16.8442 45.8294 17.8985 46.8364L20.0499 48.9752C20.4679 49.3907 21.1429 49.3907 21.5609 48.9752L25.8636 44.6976C26.565 44.0194 26.0689 42.833 25.0935 42.8559H25.0935ZM29.2665 42.8559C27.8378 42.9285 27.9466 45.0715 29.3753 44.999H35.8043C37.2533 45.0195 37.2533 42.8355 35.8043 42.8559H29.3753C29.339 42.8541 29.3027 42.8541 29.2665 42.8559ZM29.2916 47.142C27.8629 47.2145 27.9718 49.3575 29.4004 49.285H35.7457C37.1948 49.3055 37.1948 47.1215 35.7457 47.142H29.4004C29.3642 47.1401 29.3278 47.1401 29.2916 47.142ZM41.1451 49.2892H43.9159L41.1451 52.0558V49.2892Z" fill="#5FB1AC"/>
</svg>
