<svg width="60" height="61" viewBox="0 0 60 61" fill="none" xmlns="http://www.w3.org/2000/svg">
<mask id="path-1-outside-1" maskUnits="userSpaceOnUse" x="8" y="0" width="44" height="61" fill="black">
<rect fill="white" x="8" width="44" height="61"/>
<path d="M47.7566 43.9114C47.7566 43.8872 47.7485 43.871 47.7485 43.8468C47.5626 42.9255 47.2879 42.0366 46.9323 41.188L49.9304 32.8563C52.0235 27.0539 51.0133 20.8395 47.1747 15.8048C46.4313 14.8351 45.607 13.9462 44.7099 13.138C44.5645 6.42251 38.649 1 31.3921 1H28.6121C21.3471 1 15.4316 6.42251 15.2942 13.138C14.3972 13.9462 13.5729 14.8351 12.8294 15.8048C8.98277 20.8314 7.98069 27.0458 10.0657 32.8563L13.0719 41.2042C12.7082 42.0689 12.4254 42.974 12.2395 43.9195L9.7424 57.5364C9.67775 58.1101 9.85554 58.692 10.2434 59.1203C10.6152 59.5324 11.1324 59.7668 11.6819 59.7668H17.1448C17.4357 60.0092 17.7994 60.1547 18.1873 60.1547H41.8169C42.1967 60.1547 42.5684 60.0092 42.8593 59.7668H48.3223C48.8637 59.7668 49.389 59.5324 49.7607 59.1203C50.1405 58.692 50.3264 58.1101 50.2537 57.5364L47.7566 43.9114ZM48.6051 23.2638C49.4779 26.9974 49.0981 30.9087 47.7404 34.4887C47.005 36.4282 46.0838 38.8283 45.2918 40.7516C43.2876 45.6327 40.9683 45.7135 38.9157 45.6327C32.1355 45.366 32.7497 39.9597 32.8871 38.2869L35.1094 32.1128C39.7804 27.8055 41.7037 24.8882 44.7827 16.7584C44.7908 16.7584 47.4333 18.2777 48.6051 23.2638ZM36.6691 24.177C35.764 24.177 34.9155 23.975 34.1962 23.5871C32.9598 22.9244 31.4729 22.5769 29.897 22.5769C28.3212 22.5769 26.8342 22.9244 25.5978 23.5871C24.8786 23.975 24.022 24.177 23.1249 24.177C21.4036 24.177 20.0056 22.9891 20.0056 21.5344C20.0056 19.1828 22.2279 17.2756 24.9594 17.2756H34.8266C37.558 17.2756 39.7804 19.1828 39.7804 21.5344C39.7885 22.9891 38.3904 24.177 36.6691 24.177ZM34.8347 15.6594H24.9675C22.7047 15.6594 20.7087 16.6857 19.5288 18.2373C19.5369 17.5181 19.6096 16.7908 19.7389 16.0392C23.8118 15.8048 27.4888 13.9946 29.8809 11.0207C32.3052 13.9946 35.9822 15.8048 40.0551 16.0392C40.1925 16.7908 40.2572 17.5181 40.2653 18.2373C39.0854 16.6857 37.0893 15.6594 34.8347 15.6594ZM23.1249 25.7933C24.2886 25.7933 25.4119 25.5266 26.3574 25.0175C28.3293 23.9588 31.4567 23.9588 33.4285 25.0175C34.3821 25.5266 35.4973 25.7933 36.661 25.7933C37.356 25.7933 38.0106 25.6559 38.6005 25.4134C36.7661 29.1955 33.5982 32.1613 29.8889 32.1613C26.1797 32.1613 23.0118 29.1955 21.1774 25.4134C21.7754 25.6559 22.438 25.7933 23.1249 25.7933ZM29.897 33.7775C30.9799 33.7775 32.0224 33.5755 33.0002 33.2118L32.3052 35.1352C30.7617 35.3615 28.9677 35.3453 27.4646 35.0948L26.7857 33.2118C27.7797 33.5755 28.8141 33.7775 29.897 33.7775ZM16.7892 13.4532C16.7892 7.51348 22.0421 2.68898 28.5071 2.68898H31.287C37.7439 2.68898 42.9967 7.52156 42.9967 13.4532V15.6513C42.9967 16.4675 42.9078 17.2595 42.7381 18.0272C42.528 17.9544 41.7199 16.0473 41.5017 15.0856C41.4209 14.722 41.0976 14.4634 40.7259 14.4553C36.8711 14.3906 33.372 12.7744 31.1254 10.0106C30.8183 9.63885 30.3738 9.42066 29.8889 9.42066C29.4122 9.42066 28.9596 9.63885 28.6525 10.0106C26.4059 12.7744 22.9067 14.3906 19.052 14.4553C18.6803 14.4634 18.357 14.722 18.2762 15.0856C18.0661 16.0473 17.9449 16.9605 17.9045 17.8736C17.8317 17.8817 17.759 17.8656 17.6782 17.8817C17.46 17.914 16.7812 16.4675 16.7812 15.6594V13.4532H16.7892ZM19.4318 25.5185C20.4985 27.4984 23.8603 31.5633 24.6765 32.1128L26.8989 38.2869C27.1898 39.095 27.2625 39.9354 27.1413 40.7597C27.0443 40.7436 27.4727 43.2083 22.8502 45.3499C20.7167 45.9721 18.4863 45.5357 16.8701 44.3559C16.2155 43.8791 15.7306 43.2003 15.4316 42.4406L11.488 32.3795C9.75857 27.5792 10.6717 20.1687 15.3427 16.4109L19.4318 25.5185ZM48.4516 58.1101C48.4112 58.1586 48.3303 58.2152 48.2172 58.2152H43.3119L42.4634 49.9077C42.4391 49.4632 42.0512 49.1076 41.6148 49.14C41.1865 49.1642 40.8552 49.5198 40.8552 49.9481C40.8552 49.9643 40.8471 49.9723 40.8471 49.9885L41.7118 58.6031H18.0822L18.9469 49.9885C18.9469 49.9723 18.9389 49.9643 18.9389 49.9481C18.9389 49.5198 18.6075 49.1642 18.1792 49.14C17.7267 49.1076 17.3549 49.4632 17.3307 49.9077L16.4822 58.2233H11.5768C11.4637 58.2233 11.391 58.1667 11.3425 58.1182C11.2698 58.0293 11.2294 57.9162 11.2455 57.795L13.7345 44.2347C13.783 43.9761 13.8477 43.7255 13.9123 43.475C15.7064 46.4651 19.6338 47.9763 23.3108 46.9015C25.4119 46.2873 27.1575 44.8812 28.0868 43.0467C28.9354 41.3739 29.0566 39.491 28.4262 37.7373L28.1353 36.9211C28.7172 36.9615 29.299 36.9858 29.897 36.9858C30.495 36.9858 31.085 36.9615 31.6668 36.9211L31.3759 37.7373C30.7456 39.491 30.8668 41.3739 31.7153 43.0467C32.6446 44.8731 34.3902 46.2792 36.4913 46.8934C37.2833 47.1277 38.0995 47.2409 38.9238 47.2409C41.8734 47.2409 44.516 45.7701 45.8898 43.4669C45.9545 43.7013 46.011 43.9437 46.0595 44.1862L48.5566 57.7788C48.5647 57.9081 48.5243 58.0293 48.4516 58.1101ZM32.8144 27.4822C32.8144 27.8378 32.5234 28.1287 32.1679 28.1287C31.8123 28.1287 31.5214 27.8378 31.5214 27.4822C31.5214 27.3368 30.9476 26.8923 29.897 26.8923C28.8465 26.8923 28.2727 27.3368 28.2727 27.4822C28.2727 27.8378 27.9818 28.1287 27.6262 28.1287C27.2706 28.1287 26.9797 27.8378 26.9797 27.4822C26.9797 26.4074 28.2323 25.5993 29.897 25.5993C31.5618 25.5993 32.8144 26.4155 32.8144 27.4822Z"/>
</mask>
<path d="M47.7566 43.9114C47.7566 43.8872 47.7485 43.871 47.7485 43.8468C47.5626 42.9255 47.2879 42.0366 46.9323 41.188L49.9304 32.8563C52.0235 27.0539 51.0133 20.8395 47.1747 15.8048C46.4313 14.8351 45.607 13.9462 44.7099 13.138C44.5645 6.42251 38.649 1 31.3921 1H28.6121C21.3471 1 15.4316 6.42251 15.2942 13.138C14.3972 13.9462 13.5729 14.8351 12.8294 15.8048C8.98277 20.8314 7.98069 27.0458 10.0657 32.8563L13.0719 41.2042C12.7082 42.0689 12.4254 42.974 12.2395 43.9195L9.7424 57.5364C9.67775 58.1101 9.85554 58.692 10.2434 59.1203C10.6152 59.5324 11.1324 59.7668 11.6819 59.7668H17.1448C17.4357 60.0092 17.7994 60.1547 18.1873 60.1547H41.8169C42.1967 60.1547 42.5684 60.0092 42.8593 59.7668H48.3223C48.8637 59.7668 49.389 59.5324 49.7607 59.1203C50.1405 58.692 50.3264 58.1101 50.2537 57.5364L47.7566 43.9114ZM48.6051 23.2638C49.4779 26.9974 49.0981 30.9087 47.7404 34.4887C47.005 36.4282 46.0838 38.8283 45.2918 40.7516C43.2876 45.6327 40.9683 45.7135 38.9157 45.6327C32.1355 45.366 32.7497 39.9597 32.8871 38.2869L35.1094 32.1128C39.7804 27.8055 41.7037 24.8882 44.7827 16.7584C44.7908 16.7584 47.4333 18.2777 48.6051 23.2638ZM36.6691 24.177C35.764 24.177 34.9155 23.975 34.1962 23.5871C32.9598 22.9244 31.4729 22.5769 29.897 22.5769C28.3212 22.5769 26.8342 22.9244 25.5978 23.5871C24.8786 23.975 24.022 24.177 23.1249 24.177C21.4036 24.177 20.0056 22.9891 20.0056 21.5344C20.0056 19.1828 22.2279 17.2756 24.9594 17.2756H34.8266C37.558 17.2756 39.7804 19.1828 39.7804 21.5344C39.7885 22.9891 38.3904 24.177 36.6691 24.177ZM34.8347 15.6594H24.9675C22.7047 15.6594 20.7087 16.6857 19.5288 18.2373C19.5369 17.5181 19.6096 16.7908 19.7389 16.0392C23.8118 15.8048 27.4888 13.9946 29.8809 11.0207C32.3052 13.9946 35.9822 15.8048 40.0551 16.0392C40.1925 16.7908 40.2572 17.5181 40.2653 18.2373C39.0854 16.6857 37.0893 15.6594 34.8347 15.6594ZM23.1249 25.7933C24.2886 25.7933 25.4119 25.5266 26.3574 25.0175C28.3293 23.9588 31.4567 23.9588 33.4285 25.0175C34.3821 25.5266 35.4973 25.7933 36.661 25.7933C37.356 25.7933 38.0106 25.6559 38.6005 25.4134C36.7661 29.1955 33.5982 32.1613 29.8889 32.1613C26.1797 32.1613 23.0118 29.1955 21.1774 25.4134C21.7754 25.6559 22.438 25.7933 23.1249 25.7933ZM29.897 33.7775C30.9799 33.7775 32.0224 33.5755 33.0002 33.2118L32.3052 35.1352C30.7617 35.3615 28.9677 35.3453 27.4646 35.0948L26.7857 33.2118C27.7797 33.5755 28.8141 33.7775 29.897 33.7775ZM16.7892 13.4532C16.7892 7.51348 22.0421 2.68898 28.5071 2.68898H31.287C37.7439 2.68898 42.9967 7.52156 42.9967 13.4532V15.6513C42.9967 16.4675 42.9078 17.2595 42.7381 18.0272C42.528 17.9544 41.7199 16.0473 41.5017 15.0856C41.4209 14.722 41.0976 14.4634 40.7259 14.4553C36.8711 14.3906 33.372 12.7744 31.1254 10.0106C30.8183 9.63885 30.3738 9.42066 29.8889 9.42066C29.4122 9.42066 28.9596 9.63885 28.6525 10.0106C26.4059 12.7744 22.9067 14.3906 19.052 14.4553C18.6803 14.4634 18.357 14.722 18.2762 15.0856C18.0661 16.0473 17.9449 16.9605 17.9045 17.8736C17.8317 17.8817 17.759 17.8656 17.6782 17.8817C17.46 17.914 16.7812 16.4675 16.7812 15.6594V13.4532H16.7892ZM19.4318 25.5185C20.4985 27.4984 23.8603 31.5633 24.6765 32.1128L26.8989 38.2869C27.1898 39.095 27.2625 39.9354 27.1413 40.7597C27.0443 40.7436 27.4727 43.2083 22.8502 45.3499C20.7167 45.9721 18.4863 45.5357 16.8701 44.3559C16.2155 43.8791 15.7306 43.2003 15.4316 42.4406L11.488 32.3795C9.75857 27.5792 10.6717 20.1687 15.3427 16.4109L19.4318 25.5185ZM48.4516 58.1101C48.4112 58.1586 48.3303 58.2152 48.2172 58.2152H43.3119L42.4634 49.9077C42.4391 49.4632 42.0512 49.1076 41.6148 49.14C41.1865 49.1642 40.8552 49.5198 40.8552 49.9481C40.8552 49.9643 40.8471 49.9723 40.8471 49.9885L41.7118 58.6031H18.0822L18.9469 49.9885C18.9469 49.9723 18.9389 49.9643 18.9389 49.9481C18.9389 49.5198 18.6075 49.1642 18.1792 49.14C17.7267 49.1076 17.3549 49.4632 17.3307 49.9077L16.4822 58.2233H11.5768C11.4637 58.2233 11.391 58.1667 11.3425 58.1182C11.2698 58.0293 11.2294 57.9162 11.2455 57.795L13.7345 44.2347C13.783 43.9761 13.8477 43.7255 13.9123 43.475C15.7064 46.4651 19.6338 47.9763 23.3108 46.9015C25.4119 46.2873 27.1575 44.8812 28.0868 43.0467C28.9354 41.3739 29.0566 39.491 28.4262 37.7373L28.1353 36.9211C28.7172 36.9615 29.299 36.9858 29.897 36.9858C30.495 36.9858 31.085 36.9615 31.6668 36.9211L31.3759 37.7373C30.7456 39.491 30.8668 41.3739 31.7153 43.0467C32.6446 44.8731 34.3902 46.2792 36.4913 46.8934C37.2833 47.1277 38.0995 47.2409 38.9238 47.2409C41.8734 47.2409 44.516 45.7701 45.8898 43.4669C45.9545 43.7013 46.011 43.9437 46.0595 44.1862L48.5566 57.7788C48.5647 57.9081 48.5243 58.0293 48.4516 58.1101ZM32.8144 27.4822C32.8144 27.8378 32.5234 28.1287 32.1679 28.1287C31.8123 28.1287 31.5214 27.8378 31.5214 27.4822C31.5214 27.3368 30.9476 26.8923 29.897 26.8923C28.8465 26.8923 28.2727 27.3368 28.2727 27.4822C28.2727 27.8378 27.9818 28.1287 27.6262 28.1287C27.2706 28.1287 26.9797 27.8378 26.9797 27.4822C26.9797 26.4074 28.2323 25.5993 29.897 25.5993C31.5618 25.5993 32.8144 26.4155 32.8144 27.4822Z" fill="#5FB1AC"/>
<path d="M47.7566 43.9114C47.7566 43.8872 47.7485 43.871 47.7485 43.8468C47.5626 42.9255 47.2879 42.0366 46.9323 41.188L49.9304 32.8563C52.0235 27.0539 51.0133 20.8395 47.1747 15.8048C46.4313 14.8351 45.607 13.9462 44.7099 13.138C44.5645 6.42251 38.649 1 31.3921 1H28.6121C21.3471 1 15.4316 6.42251 15.2942 13.138C14.3972 13.9462 13.5729 14.8351 12.8294 15.8048C8.98277 20.8314 7.98069 27.0458 10.0657 32.8563L13.0719 41.2042C12.7082 42.0689 12.4254 42.974 12.2395 43.9195L9.7424 57.5364C9.67775 58.1101 9.85554 58.692 10.2434 59.1203C10.6152 59.5324 11.1324 59.7668 11.6819 59.7668H17.1448C17.4357 60.0092 17.7994 60.1547 18.1873 60.1547H41.8169C42.1967 60.1547 42.5684 60.0092 42.8593 59.7668H48.3223C48.8637 59.7668 49.389 59.5324 49.7607 59.1203C50.1405 58.692 50.3264 58.1101 50.2537 57.5364L47.7566 43.9114ZM48.6051 23.2638C49.4779 26.9974 49.0981 30.9087 47.7404 34.4887C47.005 36.4282 46.0838 38.8283 45.2918 40.7516C43.2876 45.6327 40.9683 45.7135 38.9157 45.6327C32.1355 45.366 32.7497 39.9597 32.8871 38.2869L35.1094 32.1128C39.7804 27.8055 41.7037 24.8882 44.7827 16.7584C44.7908 16.7584 47.4333 18.2777 48.6051 23.2638ZM36.6691 24.177C35.764 24.177 34.9155 23.975 34.1962 23.5871C32.9598 22.9244 31.4729 22.5769 29.897 22.5769C28.3212 22.5769 26.8342 22.9244 25.5978 23.5871C24.8786 23.975 24.022 24.177 23.1249 24.177C21.4036 24.177 20.0056 22.9891 20.0056 21.5344C20.0056 19.1828 22.2279 17.2756 24.9594 17.2756H34.8266C37.558 17.2756 39.7804 19.1828 39.7804 21.5344C39.7885 22.9891 38.3904 24.177 36.6691 24.177ZM34.8347 15.6594H24.9675C22.7047 15.6594 20.7087 16.6857 19.5288 18.2373C19.5369 17.5181 19.6096 16.7908 19.7389 16.0392C23.8118 15.8048 27.4888 13.9946 29.8809 11.0207C32.3052 13.9946 35.9822 15.8048 40.0551 16.0392C40.1925 16.7908 40.2572 17.5181 40.2653 18.2373C39.0854 16.6857 37.0893 15.6594 34.8347 15.6594ZM23.1249 25.7933C24.2886 25.7933 25.4119 25.5266 26.3574 25.0175C28.3293 23.9588 31.4567 23.9588 33.4285 25.0175C34.3821 25.5266 35.4973 25.7933 36.661 25.7933C37.356 25.7933 38.0106 25.6559 38.6005 25.4134C36.7661 29.1955 33.5982 32.1613 29.8889 32.1613C26.1797 32.1613 23.0118 29.1955 21.1774 25.4134C21.7754 25.6559 22.438 25.7933 23.1249 25.7933ZM29.897 33.7775C30.9799 33.7775 32.0224 33.5755 33.0002 33.2118L32.3052 35.1352C30.7617 35.3615 28.9677 35.3453 27.4646 35.0948L26.7857 33.2118C27.7797 33.5755 28.8141 33.7775 29.897 33.7775ZM16.7892 13.4532C16.7892 7.51348 22.0421 2.68898 28.5071 2.68898H31.287C37.7439 2.68898 42.9967 7.52156 42.9967 13.4532V15.6513C42.9967 16.4675 42.9078 17.2595 42.7381 18.0272C42.528 17.9544 41.7199 16.0473 41.5017 15.0856C41.4209 14.722 41.0976 14.4634 40.7259 14.4553C36.8711 14.3906 33.372 12.7744 31.1254 10.0106C30.8183 9.63885 30.3738 9.42066 29.8889 9.42066C29.4122 9.42066 28.9596 9.63885 28.6525 10.0106C26.4059 12.7744 22.9067 14.3906 19.052 14.4553C18.6803 14.4634 18.357 14.722 18.2762 15.0856C18.0661 16.0473 17.9449 16.9605 17.9045 17.8736C17.8317 17.8817 17.759 17.8656 17.6782 17.8817C17.46 17.914 16.7812 16.4675 16.7812 15.6594V13.4532H16.7892ZM19.4318 25.5185C20.4985 27.4984 23.8603 31.5633 24.6765 32.1128L26.8989 38.2869C27.1898 39.095 27.2625 39.9354 27.1413 40.7597C27.0443 40.7436 27.4727 43.2083 22.8502 45.3499C20.7167 45.9721 18.4863 45.5357 16.8701 44.3559C16.2155 43.8791 15.7306 43.2003 15.4316 42.4406L11.488 32.3795C9.75857 27.5792 10.6717 20.1687 15.3427 16.4109L19.4318 25.5185ZM48.4516 58.1101C48.4112 58.1586 48.3303 58.2152 48.2172 58.2152H43.3119L42.4634 49.9077C42.4391 49.4632 42.0512 49.1076 41.6148 49.14C41.1865 49.1642 40.8552 49.5198 40.8552 49.9481C40.8552 49.9643 40.8471 49.9723 40.8471 49.9885L41.7118 58.6031H18.0822L18.9469 49.9885C18.9469 49.9723 18.9389 49.9643 18.9389 49.9481C18.9389 49.5198 18.6075 49.1642 18.1792 49.14C17.7267 49.1076 17.3549 49.4632 17.3307 49.9077L16.4822 58.2233H11.5768C11.4637 58.2233 11.391 58.1667 11.3425 58.1182C11.2698 58.0293 11.2294 57.9162 11.2455 57.795L13.7345 44.2347C13.783 43.9761 13.8477 43.7255 13.9123 43.475C15.7064 46.4651 19.6338 47.9763 23.3108 46.9015C25.4119 46.2873 27.1575 44.8812 28.0868 43.0467C28.9354 41.3739 29.0566 39.491 28.4262 37.7373L28.1353 36.9211C28.7172 36.9615 29.299 36.9858 29.897 36.9858C30.495 36.9858 31.085 36.9615 31.6668 36.9211L31.3759 37.7373C30.7456 39.491 30.8668 41.3739 31.7153 43.0467C32.6446 44.8731 34.3902 46.2792 36.4913 46.8934C37.2833 47.1277 38.0995 47.2409 38.9238 47.2409C41.8734 47.2409 44.516 45.7701 45.8898 43.4669C45.9545 43.7013 46.011 43.9437 46.0595 44.1862L48.5566 57.7788C48.5647 57.9081 48.5243 58.0293 48.4516 58.1101ZM32.8144 27.4822C32.8144 27.8378 32.5234 28.1287 32.1679 28.1287C31.8123 28.1287 31.5214 27.8378 31.5214 27.4822C31.5214 27.3368 30.9476 26.8923 29.897 26.8923C28.8465 26.8923 28.2727 27.3368 28.2727 27.4822C28.2727 27.8378 27.9818 28.1287 27.6262 28.1287C27.2706 28.1287 26.9797 27.8378 26.9797 27.4822C26.9797 26.4074 28.2323 25.5993 29.897 25.5993C31.5618 25.5993 32.8144 26.4155 32.8144 27.4822Z" stroke="#5FB1AC" stroke-width="0.3" mask="url(#path-1-outside-1)"/>
</svg>
