<svg width="61" height="60" viewBox="0 0 61 60" fill="none" xmlns="http://www.w3.org/2000/svg">
<path d="M40.0051 14C41.1097 14 42.0051 13.1046 42.0051 12C42.0051 10.8954 41.1097 10 40.0051 10C38.9006 10 38.0051 10.8954 38.0051 12C38.0051 13.1046 38.9006 14 40.0051 14Z" fill="#5FB1AC"/>
<path d="M30.0051 14C31.1097 14 32.0051 13.1046 32.0051 12C32.0051 10.8954 31.1097 10 30.0051 10C28.9006 10 28.0051 10.8954 28.0051 12C28.0051 13.1046 28.9006 14 30.0051 14Z" fill="#5FB1AC"/>
<path d="M20.0051 14C21.1097 14 22.0051 13.1046 22.0051 12C22.0051 10.8954 21.1097 10 20.0051 10C18.9006 10 18.0051 10.8954 18.0051 12C18.0051 13.1046 18.9006 14 20.0051 14Z" fill="#5FB1AC"/>
<path d="M56.005 41C57.0659 41 58.0833 40.5786 58.8334 39.8284C59.5836 39.0783 60.005 38.0609 60.005 37V30C60.005 28.9391 59.5836 27.9217 58.8334 27.1716C58.0833 26.4214 57.0659 26 56.005 26C54.9441 26 53.9267 26.4214 53.1766 27.1716C52.4264 27.9217 52.005 28.9391 52.005 30V31H54.005V30C54.005 29.4696 54.2157 28.9609 54.5908 28.5858C54.9659 28.2107 55.4746 28 56.005 28C56.5354 28 57.0442 28.2107 57.4192 28.5858C57.7943 28.9609 58.005 29.4696 58.005 30V37C58.005 37.5304 57.7943 38.0391 57.4192 38.4142C57.0442 38.7893 56.5354 39 56.005 39C55.4746 39 54.9659 38.7893 54.5908 38.4142C54.2157 38.0391 54.005 37.5304 54.005 37V34C54.005 33.7348 53.8997 33.4804 53.7121 33.2929C53.5246 33.1054 53.2702 33 53.005 33H50.005V9C50.0024 6.61386 49.0533 4.32622 47.3661 2.63896C45.6788 0.951708 43.3911 0.00264685 41.005 0H19.005C16.6189 0.00264685 14.3312 0.951708 12.644 2.63896C10.9567 4.32622 10.0077 6.61386 10.005 9V29.1C8.87472 29.3295 7.85854 29.9427 7.12863 30.8357C6.39873 31.7288 6 32.8466 6 34C6 35.1534 6.39873 36.2712 7.12863 37.1643C7.85854 38.0573 8.87472 38.6705 10.005 38.9V51C10.0077 53.3861 10.9567 55.6738 12.644 57.361C14.3312 59.0483 16.6189 59.9974 19.005 60H41.005C43.3911 59.9974 45.6788 59.0483 47.3661 57.361C49.0533 55.6738 50.0024 53.3861 50.005 51V35H52.005V37C52.005 38.0609 52.4264 39.0783 53.1766 39.8284C53.9267 40.5786 54.9441 41 56.005 41ZM12.005 39H14.005V41C14.0066 42.3256 14.5339 43.5964 15.4712 44.5338C16.4086 45.4711 17.6794 45.9984 19.005 46H41.005C42.3306 45.9984 43.6015 45.4711 44.5388 44.5338C45.4761 43.5964 46.0034 42.3256 46.005 41V38.9C46.076 38.885 46.141 38.855 46.211 38.837C46.4147 38.7874 46.615 38.7253 46.811 38.651C46.911 38.612 47.005 38.57 47.101 38.525C47.2833 38.4397 47.4603 38.3435 47.631 38.237C47.715 38.185 47.8 38.137 47.88 38.078C47.921 38.05 47.966 38.029 48.005 37.999V40.999C48.0026 42.8548 47.2644 44.6339 45.9521 45.9461C44.6399 47.2584 42.8608 47.9966 41.005 47.999H19.005C17.1492 47.9966 15.3701 47.2584 14.0579 45.9461C12.7457 44.6339 12.0074 42.8548 12.005 40.999V39ZM42.005 34C42.0037 33.2932 42.2525 32.6087 42.7075 32.0678C43.1625 31.5268 43.7942 31.1644 44.4908 31.0446C45.1874 30.9248 45.904 31.0555 46.5135 31.4134C47.123 31.7713 47.5862 32.3333 47.821 33H45.005V35H47.821C47.5862 35.6667 47.123 36.2287 46.5135 36.5866C45.904 36.9445 45.1874 37.0752 44.4908 36.9554C43.7942 36.8356 43.1625 36.4732 42.7075 35.9322C42.2525 35.3913 42.0037 34.7068 42.005 34ZM39.005 22V29H36.005V17.211C36.002 13.3582 37.1425 9.59117 39.282 6.387C39.3657 6.27408 39.4747 6.18233 39.6003 6.11912C39.7258 6.0559 39.8644 6.02298 40.005 6.02298C40.1456 6.02298 40.2842 6.0559 40.4097 6.11912C40.5353 6.18233 40.6443 6.27408 40.728 6.387C42.5745 9.15416 43.6807 12.3485 43.941 15.665C43.2288 16.4038 42.3236 16.9278 41.3283 17.1774C40.3329 17.4271 39.2875 17.3923 38.311 17.077L37.699 18.977C38.448 19.2185 39.2301 19.3417 40.017 19.342C41.4291 19.3415 42.812 18.9403 44.005 18.185V29H41.005V22H39.005ZM31.005 29V22H29.005V29H26.005V17.211C26.002 13.3582 27.1425 9.59117 29.282 6.387C29.3657 6.27408 29.4747 6.18233 29.6003 6.11912C29.7258 6.0559 29.8644 6.02298 30.005 6.02298C30.1456 6.02298 30.2842 6.0559 30.4097 6.11912C30.5353 6.18233 30.6443 6.27408 30.728 6.387C32.5745 9.15416 33.6807 12.3485 33.941 15.665C33.2288 16.4038 32.3236 16.9278 31.3283 17.1774C30.3329 17.4271 29.2875 17.3923 28.311 17.077L27.699 18.977C28.448 19.2185 29.2301 19.3417 30.017 19.342C31.4291 19.3415 32.812 18.9403 34.005 18.185V29H31.005ZM21.005 29V22H19.005V29H16.005V17.211C16.002 13.3582 17.1425 9.59117 19.282 6.387C19.3657 6.27408 19.4747 6.18233 19.6003 6.11912C19.7258 6.0559 19.8644 6.02298 20.005 6.02298C20.1456 6.02298 20.2842 6.0559 20.4097 6.11912C20.5353 6.18233 20.6443 6.27408 20.728 6.387C22.5745 9.15416 23.6807 12.3485 23.941 15.665C23.2288 16.4038 22.3236 16.9278 21.3283 17.1774C20.3329 17.4271 19.2875 17.3923 18.311 17.077L17.699 18.977C18.448 19.2185 19.2301 19.3417 20.017 19.342C21.4291 19.3415 22.812 18.9403 24.005 18.185V29H21.005ZM22.836 6H27.174C26.2607 7.48718 25.5323 9.0803 25.005 10.744C24.4777 9.0803 23.7494 7.48718 22.836 6ZM32.836 6H37.174C36.2607 7.48718 35.5323 9.0803 35.005 10.744C34.4777 9.0803 33.7494 7.48718 32.836 6ZM44.005 39V41C44.005 41.7957 43.6889 42.5587 43.1263 43.1213C42.5637 43.6839 41.8007 44 41.005 44H19.005C18.2094 44 17.4463 43.6839 16.8837 43.1213C16.3211 42.5587 16.005 41.7957 16.005 41V39H44.005ZM19.005 2H41.005C42.8608 2.00238 44.6399 2.74064 45.9521 4.05288C47.2644 5.36512 48.0026 7.14422 48.005 9V30.026C47.4162 29.5714 46.7327 29.2553 46.005 29.101V9C46.0034 7.67441 45.4761 6.40356 44.5388 5.46622C43.6015 4.52888 42.3306 4.00159 41.005 4H19.005C17.6794 4.00159 16.4086 4.52888 15.4712 5.46622C14.5339 6.40356 14.0066 7.67441 14.005 9V29H12.005V9C12.0074 7.14422 12.7457 5.36512 14.0579 4.05288C15.3701 2.74064 17.1492 2.00238 19.005 2ZM8.00501 34C8.00501 33.2043 8.32108 32.4413 8.88369 31.8787C9.4463 31.3161 10.2094 31 11.005 31H41.031C40.3661 31.8587 40.0053 32.914 40.0053 34C40.0053 35.086 40.3661 36.1413 41.031 37H11.005C10.2094 37 9.4463 36.6839 8.88369 36.1213C8.32108 35.5587 8.00501 34.7957 8.00501 34ZM48.005 51C48.0026 52.8558 47.2644 54.6349 45.9521 55.9471C44.6399 57.2594 42.8608 57.9976 41.005 58H19.005C17.1492 57.9976 15.3701 57.2594 14.0579 55.9471C12.7457 54.6349 12.0074 52.8558 12.005 51V46.645C12.8468 47.692 13.9126 48.5368 15.124 49.1174C16.3354 49.6981 17.6616 49.9996 19.005 50H41.005C42.3484 49.9996 43.6746 49.6981 44.886 49.1174C46.0974 48.5368 47.1633 47.692 48.005 46.645V51Z" fill="#5FB1AC"/>
</svg>
