<svg width="60" height="60" viewBox="0 0 60 60" fill="none" xmlns="http://www.w3.org/2000/svg">
<path d="M59.0002 3H53.0012C52.8025 2.99996 52.6084 3.0591 52.4435 3.16986C52.2786 3.28062 52.1504 3.438 52.0753 3.6219L39.1945 35.1861L32.7486 37.0278L25.0059 38.7216V32.9954C25.0059 32.1999 24.6899 31.437 24.1274 30.8744C23.5649 30.3119 22.802 29.9959 22.0064 29.9959H20.0068V28.996C20.0068 28.2005 19.6908 27.4376 19.1282 26.875C18.5657 26.3125 17.8028 25.9965 17.0073 25.9965H15.0076C14.2121 25.9965 13.4492 26.3125 12.8867 26.875C12.3241 27.4376 12.0081 28.2005 12.0081 28.996V29.9959H10.0085C9.21295 29.9959 8.45002 30.3119 7.88751 30.8744C7.32499 31.437 7.00898 32.1999 7.00898 32.9954V38.9945C7.00898 39.2597 7.11432 39.514 7.30182 39.7015C7.48932 39.889 7.74364 39.9944 8.00881 39.9944H11.0083V41.7941L7.92982 42.473C6.86199 42.7077 5.90128 43.2878 5.19639 44.1236C4.4915 44.9593 4.08172 46.0041 4.03048 47.0963C3.18644 47.263 2.3997 47.6447 1.74638 48.2045C1.09306 48.7643 0.595272 49.4833 0.301166 50.2918C0.007061 51.1003 -0.0734047 51.9711 0.0675535 52.8198C0.208512 53.6686 0.566123 54.4666 1.10579 55.1366C1.64546 55.8067 2.34892 56.3261 3.14812 56.6447C3.94732 56.9632 4.81521 57.0702 5.66783 56.9551C6.52045 56.84 7.32894 56.5068 8.01509 55.9878C8.70123 55.4687 9.24182 54.7814 9.58454 53.9922H27.8175C28.3422 54.9039 29.098 55.6612 30.0086 56.1878C30.9193 56.7144 31.9526 56.9917 33.0046 56.9917C34.0565 56.9917 35.0899 56.7144 36.0005 56.1878C36.9112 55.6612 37.6669 54.9039 38.1917 53.9922H53.0012C53.5315 53.9922 54.0402 53.7815 54.4152 53.4065C54.7902 53.0315 55.0008 52.5229 55.0008 51.9925V34.9951C55.0008 34.4648 54.7902 33.9561 54.4152 33.5811C54.0402 33.2061 53.5315 32.9954 53.0012 32.9954H47.0022C46.9092 32.9955 46.8167 33.0083 46.7272 33.0334L41.6391 34.4872L53.6731 4.9997H59.0002C59.2653 4.9997 59.5197 4.89435 59.7072 4.70685C59.8947 4.51934 60 4.26502 60 3.99985C60 3.73467 59.8947 3.48036 59.7072 3.29285C59.5197 3.10534 59.2653 3 59.0002 3ZM34.0044 45.0836V41.9941H36.416L35.0432 45.3575C34.7058 45.2354 34.3582 45.1437 34.0044 45.0836ZM34.0044 39.9944V38.7486L38.2337 37.5407L37.2339 39.9944H34.0044ZM14.0078 28.996C14.0078 28.7309 14.1131 28.4765 14.3006 28.289C14.4881 28.1015 14.7424 27.9962 15.0076 27.9962H17.0073C17.2725 27.9962 17.5268 28.1015 17.7143 28.289C17.9018 28.4765 18.0071 28.7309 18.0071 28.996V29.9959H14.0078V28.996ZM9.00864 32.9954C9.00864 32.7302 9.11398 32.4759 9.30148 32.2884C9.48899 32.1009 9.7433 31.9956 10.0085 31.9956H22.0064C22.2716 31.9956 22.5259 32.1009 22.7134 32.2884C22.9009 32.4759 23.0063 32.7302 23.0063 32.9954V33.9953H9.00864V32.9954ZM9.00864 35.995H15.0076V37.9947H9.00864V35.995ZM16.0075 39.9944C16.2726 39.9944 16.5269 39.889 16.7144 39.7015C16.9019 39.514 17.0073 39.2597 17.0073 38.9945V35.995H23.0063V41.9941H13.008V39.9944H16.0075ZM5.00932 54.9921C4.41607 54.9921 3.83615 54.8162 3.34289 54.4866C2.84962 54.157 2.46517 53.6885 2.23815 53.1404C2.01112 52.5923 1.95172 51.9892 2.06746 51.4073C2.18319 50.8255 2.46887 50.291 2.88835 49.8715C3.30784 49.452 3.8423 49.1664 4.42414 49.0506C5.00599 48.9349 5.60909 48.9943 6.15717 49.2213C6.70526 49.4483 7.17371 49.8328 7.5033 50.3261C7.83289 50.8193 8.00881 51.3993 8.00881 51.9925C8.00881 52.7881 7.69279 53.551 7.13028 54.1135C6.56776 54.676 5.80483 54.9921 5.00932 54.9921ZM14.0078 51.9925V48.993H22.0064V51.9925H14.0078ZM27.0056 50.9927C27.0076 51.3279 27.0377 51.6623 27.0956 51.9925H24.0061V47.9931C24.0061 47.728 23.9008 47.4736 23.7133 47.2861C23.5257 47.0986 23.2714 46.9933 23.0063 46.9933H13.008C12.7428 46.9933 12.4885 47.0986 12.301 47.2861C12.1135 47.4736 12.0081 47.728 12.0081 47.9931V51.9925H10.0085C10.0068 50.8447 9.6108 49.7322 8.88672 48.8416C8.16263 47.9509 7.15448 47.3362 6.03114 47.1003C6.08149 46.4626 6.33536 45.858 6.75533 45.3756C7.17529 44.8932 7.73913 44.5584 8.36375 44.4207L11.3822 43.7558C11.5564 43.9061 11.778 43.9904 12.0081 43.9937H24.0061C24.2713 43.9937 24.5256 43.8884 24.7131 43.7009C24.9006 43.5134 25.0059 43.2591 25.0059 42.9939V40.7682L32.0047 39.2365V45.0836C30.6084 45.3208 29.3409 46.044 28.4261 47.1252C27.5114 48.2065 27.0082 49.5763 27.0056 50.9927ZM33.0046 54.9921C32.2136 54.9921 31.4404 54.7575 30.7827 54.3181C30.125 53.8786 29.6124 53.254 29.3097 52.5232C29.007 51.7924 28.9278 50.9882 29.0821 50.2124C29.2364 49.4366 29.6173 48.724 30.1766 48.1647C30.7359 47.6054 31.4486 47.2245 32.2243 47.0701C33.0001 46.9158 33.8043 46.995 34.535 47.2977C35.2658 47.6004 35.8904 48.113 36.3299 48.7707C36.7693 49.4284 37.0039 50.2017 37.0039 50.9927C37.0039 52.0534 36.5825 53.0706 35.8325 53.8207C35.0825 54.5707 34.0653 54.9921 33.0046 54.9921ZM38.9136 51.9925C39.0977 50.9488 38.9985 49.8748 38.6264 48.8825C38.2543 47.8901 37.6229 47.0157 36.7979 46.3504L38.5756 41.9941H53.0012V51.9925H38.9136ZM47.1422 34.9951H53.0012V39.9944H39.3915L40.6783 36.8418L47.1422 34.9951Z" fill="#5FB1AC"/>
</svg>
