<svg width="60" height="60" viewBox="0 0 60 60" fill="none" xmlns="http://www.w3.org/2000/svg">
<path d="M58.6731 33.8253H53.8832C53.7383 32.8957 53.3217 32.0026 52.6068 31.2862L38.7115 17.3908C38.4534 17.1328 38.1051 16.9886 37.7409 16.9886H29.6674C28.885 16.9886 28.3994 17.7035 27.8629 18.1724C27.2558 18.7014 26.607 19.1863 25.9119 19.5938C24.9458 20.1599 23.8766 20.5833 22.7581 20.7139C22.1737 20.7822 21.5697 20.7738 20.9945 20.6387C19.6103 20.3124 18.6299 19.1225 19.8372 17.9175L26.3224 11.4323C26.7474 11.0073 27.2186 10.7448 28.2575 10.7448H41.1967C41.9556 10.7448 42.7531 11.5385 43.2836 11.9939C44.1282 12.7186 44.9181 13.5055 45.7407 14.2552C47.2433 15.6265 49.0577 17.1821 51.2113 17.1821H58.6739C60.442 17.1821 60.442 14.4381 58.6739 14.4381H51.2113C50.4062 14.4381 49.6405 13.8978 49.0251 13.4364C48.103 12.7451 47.2729 11.9377 46.4358 11.15C45.0251 9.82505 43.2881 8.00076 41.1967 8.00076H28.2643C28.2613 8.00076 28.259 8 28.2567 8H18.8052C16.7138 8 14.9768 9.82429 13.566 11.15C12.7882 11.8808 12.0172 12.626 11.1757 13.2839C10.5139 13.8014 9.67388 14.4381 8.79057 14.4381H1.328C-0.441653 14.4381 -0.441653 17.1821 1.328 17.1821H8.79057C10.9442 17.1821 12.7586 15.6257 14.2612 14.2552C15.0838 13.5055 15.8737 12.7186 16.7183 11.9939C17.2488 11.5378 18.0456 10.7448 18.8052 10.7448H23.1299L17.8968 15.9778C16.6804 17.1935 16.0976 18.9761 16.8147 20.6069C17.4795 22.117 19.0063 23.0314 20.5726 23.3569C24.1399 24.0968 27.7081 22.0995 30.2237 19.7342H37.1733L50.6665 33.2281C52.3564 34.9181 49.7414 37.5384 48.0507 35.853L39.355 27.1565C38.1044 25.9037 36.164 27.8456 37.4146 29.0969L47.3078 38.9901C48.9993 40.6816 46.3812 43.3072 44.6905 41.615L34.7927 31.718C33.5437 30.4659 31.6017 32.4071 32.8523 33.6584L41.3568 42.1629C42.4997 43.3057 41.674 45.3319 40.0508 45.3303C39.5561 45.3303 39.0901 45.1376 38.7403 44.7863H38.7388L30.2328 36.2787C28.9822 35.0266 27.0418 36.9678 28.2924 38.2191L35.4173 45.344C37.0997 47.0393 34.4808 49.6482 32.7924 47.9598L31.8613 47.0302C33.3539 44.1784 31.4416 40.6217 28.2211 40.3416C28.435 38.0249 26.8506 35.8773 24.5565 35.4387C25.1947 32.6833 23.1519 29.9468 20.3153 29.8194C20.5187 25.7018 15.4032 23.4647 12.5021 26.365L7.58172 31.287C6.86764 32.0026 6.45026 32.8965 6.30532 33.8261H1.32724C-0.442412 33.8261 -0.442412 36.5694 1.32724 36.5694H6.72952C7.43222 37.9937 8.80423 38.9658 10.3933 39.1146C10.1186 42.0445 12.6744 44.4873 15.5838 44.0798C15.9557 46.93 18.9456 48.7619 21.6532 47.8118C22.1608 49.8197 24.017 51.2487 26.0864 51.2487C27.3135 51.2487 28.4684 50.7683 29.3366 49.9002L30.0939 49.1428L30.8512 49.9002C33.3115 52.3634 37.6703 51.194 38.5316 47.8118C41.0336 48.6845 43.833 47.207 44.497 44.6314C47.9801 45.8646 51.4185 42.518 50.3857 39.0053C51.7402 38.6957 52.8429 37.8139 53.4583 36.5701H58.6724C60.4413 36.5686 60.4413 33.8253 58.6731 33.8253ZM9.52135 35.8485C8.79968 35.1268 8.79968 33.9498 9.52287 33.2266L14.4433 28.3054C16.1355 26.614 18.7543 29.235 17.0636 30.9265L12.1386 35.8515C11.439 36.5481 10.2195 36.5466 9.52135 35.8485ZM13.6374 40.8554C12.9142 40.1322 12.9142 38.9567 13.6374 38.2335C13.6374 38.2335 18.7801 33.0923 18.7832 33.0893C20.4747 31.3993 23.095 34.0189 21.4035 35.7096L16.2577 40.8554C15.5345 41.5786 14.3606 41.5771 13.6374 40.8554ZM21.4475 44.7855C21.0962 45.1368 20.631 45.3296 20.137 45.3296H20.1362C18.5199 45.3296 17.6828 43.308 18.8264 42.1667C18.8272 42.1652 22.3597 38.6334 22.3619 38.6304C24.0527 36.9389 26.6715 39.56 24.9815 41.2507C24.98 41.2538 21.4498 44.7832 21.4475 44.7855ZM27.3954 47.9605C25.7115 49.6475 23.1011 47.0446 24.766 45.3493L26.5091 43.6077C26.8544 43.261 27.3286 43.0652 27.8181 43.0652C29.442 43.0652 30.2669 45.0883 29.1256 46.2296C29.1233 46.2326 27.3954 47.9605 27.3954 47.9605Z" fill="#5FB1AC"/>
</svg>
