<svg width="61" height="62" viewBox="0 0 61 62" fill="none" xmlns="http://www.w3.org/2000/svg">
<path fill-rule="evenodd" clip-rule="evenodd" d="M35.762 2.68588C29.9166 1.03241 24.568 0.58993 19.8405 1.38173C16.645 1.82946 13.6543 3.2154 11.2471 5.36405C9.34546 7.23947 7.92357 9.54537 7.10175 12.0866L6.91545 12.6223C6.74734 13.1198 6.56759 13.6116 6.38628 14.1076L6.30219 14.3378C5.86083 15.4882 5.49265 16.6653 5.19987 17.8621C4.92798 19.0079 4.89889 20.1978 5.11448 21.3554C5.20763 21.8289 5.31631 22.2326 5.42499 22.6052C5.60466 22.9994 5.68913 23.4303 5.6716 23.8632C5.65407 24.296 5.53503 24.7187 5.32407 25.0971C4.70201 26.3536 3.93613 27.5337 3.04181 28.6136C2.94664 28.7326 2.83778 28.8516 2.72574 28.974C2.69156 29.0114 2.65709 29.049 2.62262 29.0871L2.53294 29.1874C1.76205 30.0477 0.719032 31.2117 1.07006 32.7279C1.18469 33.3241 1.44238 33.8836 1.82099 34.3582C2.19961 34.8328 2.68781 35.2084 3.24364 35.4526L3.42219 35.5147C3.585 35.563 3.74138 35.6308 3.88796 35.7166C3.89135 35.7475 3.89135 35.7788 3.88796 35.8097C3.88796 36.082 3.85007 36.4408 3.81498 36.7732C3.80804 36.8389 3.80121 36.9036 3.7948 36.9664L3.79389 36.9744C3.69352 37.8546 3.63265 38.3883 3.91901 38.8139C4.15855 39.135 4.41781 39.441 4.69529 39.7299C4.3858 40.1206 4.23848 40.6154 4.28386 41.1117C4.44716 41.6763 4.76432 42.1843 5.19987 42.5789C5.38441 42.7803 5.55311 42.9957 5.70445 43.2232C5.64652 43.4705 5.57394 43.7142 5.48709 43.9529C5.18653 44.7224 5.03124 45.541 5.02909 46.3671C5.17658 48.4941 6.86887 49.9147 10.0516 50.5823C11.9156 50.9168 13.8117 51.0366 15.7029 50.9394H16.8673C17.2024 51.7396 17.4547 52.572 17.6203 53.4235C17.7135 53.8505 17.8066 54.2774 17.9153 54.6578C18.3811 56.3656 19.2971 59.8666 19.2971 59.8666L19.5999 61L34.7524 53.7874C34.4333 53.2128 34.1535 52.6135 33.9166 51.9929L20.8574 58.1821C20.7765 57.8767 20.6851 57.527 20.5884 57.1575L20.5884 57.1572C20.3142 56.1086 19.9982 54.9004 19.7629 54.0911C19.6883 53.8272 19.6222 53.5293 19.5583 53.2413C19.5357 53.1397 19.5134 53.0394 19.4912 52.9422C19.2881 51.7878 18.9194 50.6688 18.3966 49.6197C18.0783 49.0841 17.566 48.9832 16.5801 48.9832H15.6719C13.9317 49.0837 12.1857 48.9769 10.4708 48.6649C7.11732 47.9601 7.02454 46.6604 6.99329 46.2227L6.99307 46.2196C7.01864 45.6466 7.14204 45.0821 7.35793 44.5506C7.53327 44.1034 7.64055 43.6324 7.6762 43.1533C7.58098 42.4383 7.23422 41.7806 6.69809 41.298C6.58165 41.1661 6.42639 40.9797 6.33324 40.8478C6.43631 40.6974 6.562 40.5639 6.70585 40.4519L7.52871 39.7998L6.75243 39.0235C6.341 38.6121 5.86747 38.1153 5.64235 37.8669C5.64235 37.7251 5.66722 37.5293 5.6897 37.3525C5.69798 37.2873 5.70594 37.2247 5.71221 37.1682C5.77511 36.7127 5.8114 36.2539 5.82089 35.7942C5.81451 35.2925 5.63598 34.8082 5.3152 34.4225C4.99441 34.0367 4.55084 33.7728 4.05874 33.675L3.91125 33.6206C3.64762 33.4952 3.4186 33.3073 3.24408 33.0733C3.06957 32.8392 2.95483 32.5661 2.90984 32.2777C2.77788 31.7187 3.42219 31.0201 3.98887 30.4068C4.02914 30.3629 4.0694 30.3194 4.10936 30.2762L4.1094 30.2762C4.23892 30.1363 4.36522 29.9999 4.47793 29.8634C5.46046 28.669 6.30425 27.3668 6.99307 25.982C7.31473 25.3922 7.50362 24.7392 7.54653 24.0688C7.58944 23.3984 7.48533 22.7266 7.24148 22.1006L7.23306 22.0704C7.14228 21.7453 7.04508 21.3971 6.96979 20.9906C6.79968 20.1032 6.82351 19.1896 7.03965 18.3124C7.32464 17.194 7.67985 16.0947 8.10315 15.021C8.32827 14.431 8.54563 13.841 8.7397 13.2433L8.91049 12.7465C9.63417 10.4968 10.8851 8.45276 12.559 6.78464C14.6968 4.91378 17.3313 3.70305 20.1432 3.29915C24.5836 2.52287 29.6527 2.98863 35.2108 4.56448C47.119 7.92577 48.2057 18.4211 47.7943 24.3751C47.5941 27.2348 45.6624 30.4566 43.7999 33.3674C44.6245 33.1746 45.4771 33.0547 46.3506 33.0148C48.0214 30.2772 49.5092 27.3634 49.735 24.5071C50.0921 19.2439 49.4478 6.56728 35.762 2.68588ZM25.5772 12.8862L29.5595 11.9314L27.8362 22.2559L25.9265 21.9376L27.1608 14.4931L23.1785 15.4557L24.9018 5.17774L26.8193 5.49602L25.5772 12.8862ZM16.6733 16.9073L22.7283 22.939L21.362 24.313L17.3875 20.354L16.1765 23.3504L10.1215 17.3188L11.4955 15.9447L15.47 19.9271L16.6733 16.9073ZM42.7485 15.9447L44.1225 17.3188L38.0675 23.3504L36.8643 20.354L32.882 24.313L31.5157 22.939L37.5707 16.9073L38.774 19.9271L42.7485 15.9447ZM42.6601 40.5454C44.2576 39.5356 46.1092 38.9986 48 38.9967C49.8908 38.9986 51.7424 39.5356 53.3399 40.5454C54.9374 41.5553 56.2154 42.9967 57.0257 44.7023C57.8359 46.408 58.1452 48.308 57.9176 50.182C57.6901 52.0561 56.935 53.8273 55.74 55.2902L57.74 57.287C57.8337 57.3798 57.9081 57.4902 57.9589 57.6119C58.0097 57.7335 58.0358 57.864 58.0358 57.9958C58.0358 58.1276 58.0097 58.2581 57.9589 58.3798C57.9081 58.5014 57.8337 58.6119 57.74 58.7047C57.647 58.7983 57.5364 58.8725 57.4146 58.9232C57.2927 58.9739 57.162 59 57.03 59C56.898 59 56.7673 58.9739 56.6454 58.9232C56.5236 58.8725 56.413 58.7983 56.32 58.7047L54.32 56.7079C52.5353 58.161 50.3029 58.9546 48 58.9546C45.6971 58.9546 43.4647 58.161 41.68 56.7079L39.68 58.7047C39.587 58.7983 39.4764 58.8725 39.3546 58.9232C39.2327 58.9739 39.102 59 38.97 59C38.838 59 38.7073 58.9739 38.5854 58.9232C38.4636 58.8725 38.353 58.7983 38.26 58.7047C38.1663 58.6119 38.0919 58.5014 38.0411 58.3798C37.9903 58.2581 37.9642 58.1276 37.9642 57.9958C37.9642 57.864 37.9903 57.7335 38.0411 57.6119C38.0919 57.4902 38.1663 57.3798 38.26 57.287L40.26 55.2902C39.065 53.8273 38.3099 52.0561 38.0824 50.182C37.8548 48.308 38.1641 46.408 38.9743 44.7023C39.7846 42.9967 41.0626 41.5553 42.6601 40.5454ZM43.5554 55.6215C44.871 56.4991 46.4178 56.9675 48 56.9675C50.1217 56.9675 52.1566 56.126 53.6569 54.6282C55.1571 53.1303 56 51.0988 56 48.9805C56 47.4008 55.5308 45.8566 54.6518 44.5432C53.7727 43.2297 52.5233 42.206 51.0615 41.6015C49.5997 40.997 47.9911 40.8388 46.4393 41.147C44.8874 41.4552 43.462 42.2158 42.3431 43.3328C41.2243 44.4498 40.4624 45.873 40.1537 47.4223C39.845 48.9716 40.0035 50.5776 40.609 52.037C41.2145 53.4964 42.2398 54.7438 43.5554 55.6215ZM52.7071 50.6848C52.8946 50.4976 53 50.2437 53 49.9789C53 49.7141 52.8946 49.4602 52.7071 49.2729C52.5196 49.0857 52.2652 48.9805 52 48.9805H49V43.9886C49 43.7238 48.8946 43.4699 48.7071 43.2827C48.5196 43.0954 48.2652 42.9903 48 42.9903C47.7348 42.9903 47.4804 43.0954 47.2929 43.2827C47.1054 43.4699 47 43.7238 47 43.9886V49.9789C47 50.2437 47.1054 50.4976 47.2929 50.6848C47.4804 50.8721 47.7348 50.9773 48 50.9773H52C52.2652 50.9773 52.5196 50.8721 52.7071 50.6848ZM37.2929 41.6995C37.4804 41.8867 37.7348 41.9919 38 41.9919C38.2652 41.9919 38.5196 41.8867 38.7071 41.6995C38.8946 41.5122 39 41.2583 39 40.9935C39 40.4639 39.2107 39.956 39.5858 39.5816C39.9609 39.2071 40.4696 38.9967 41 38.9967C41.2652 38.9967 41.5196 38.8916 41.7071 38.7043C41.8946 38.5171 42 38.2632 42 37.9984C42 37.7336 41.8946 37.4796 41.7071 37.2924C41.5196 37.1052 41.2652 37 41 37C39.9391 37 38.9217 37.4207 38.1716 38.1697C37.4214 38.9186 37 39.9344 37 40.9935C37 41.2583 37.1054 41.5122 37.2929 41.6995ZM58.7071 41.6995C58.8946 41.5122 59 41.2583 59 40.9935C59 39.9344 58.5786 38.9186 57.8284 38.1697C57.0783 37.4207 56.0609 37 55 37C54.7348 37 54.4804 37.1052 54.2929 37.2924C54.1054 37.4796 54 37.7336 54 37.9984C54 38.2632 54.1054 38.5171 54.2929 38.7043C54.4804 38.8916 54.7348 38.9967 55 38.9967C55.5304 38.9967 56.0391 39.2071 56.4142 39.5816C56.7893 39.956 57 40.4639 57 40.9935C57 41.2583 57.1054 41.5122 57.2929 41.6995C57.4804 41.8867 57.7348 41.9919 58 41.9919C58.2652 41.9919 58.5196 41.8867 58.7071 41.6995Z" fill="#5FB1AC"/>
<path d="M19.8405 1.38173L19.8752 1.6294L19.8818 1.6283L19.8405 1.38173ZM35.762 2.68588L35.8302 2.44537L35.83 2.44532L35.762 2.68588ZM11.2471 5.36405L11.0804 5.17731L11.0715 5.18605L11.2471 5.36405ZM7.10175 12.0866L7.33794 12.1688L7.33963 12.1636L7.10175 12.0866ZM6.91545 12.6223L6.67931 12.5401L6.6786 12.5422L6.91545 12.6223ZM6.38628 14.1076L6.15147 14.0218L6.15145 14.0219L6.38628 14.1076ZM6.30219 14.3378L6.53563 14.4274L6.53701 14.4236L6.30219 14.3378ZM5.19987 17.8621L4.95702 17.8027L4.95663 17.8044L5.19987 17.8621ZM5.11448 21.3554L4.86869 21.4012L4.86918 21.4037L5.11448 21.3554ZM5.42499 22.6052L5.18499 22.6752L5.19003 22.6925L5.1975 22.7089L5.42499 22.6052ZM5.6716 23.8632L5.9214 23.8733L5.6716 23.8632ZM5.32407 25.0971L5.10546 24.9752L5.10002 24.9862L5.32407 25.0971ZM3.04181 28.6136L2.84924 28.4541L2.8466 28.4574L3.04181 28.6136ZM2.72574 28.974L2.91018 29.1428H2.91018L2.72574 28.974ZM2.62262 29.0871L2.43723 28.9194L2.43633 28.9204L2.62262 29.0871ZM2.53294 29.1874L2.71913 29.3542L2.71923 29.3541L2.53294 29.1874ZM1.07006 32.7279L1.31574 32.6807L1.31362 32.6715L1.07006 32.7279ZM3.24364 35.4526L3.14307 35.6815L3.15215 35.6855L3.16151 35.6888L3.24364 35.4526ZM3.42219 35.5147L3.33997 35.7511L3.35108 35.7544L3.42219 35.5147ZM3.88796 35.7166L4.13646 35.6893L4.12275 35.5643L4.01421 35.5008L3.88796 35.7166ZM3.88796 35.8097L3.63945 35.7825L3.63796 35.796V35.8097H3.88796ZM3.81498 36.7732L3.56636 36.747H3.56636L3.81498 36.7732ZM3.7948 36.9664L4.04321 36.9947L4.04351 36.9918L3.7948 36.9664ZM3.79389 36.9744L4.04228 37.0027L4.04228 37.0027L3.79389 36.9744ZM3.91901 38.8139L3.71133 38.9536L3.71862 38.9634L3.91901 38.8139ZM4.69529 39.7299L4.89125 39.8852L5.02673 39.7142L4.87561 39.5568L4.69529 39.7299ZM4.28386 41.1117L4.0349 41.1345L4.03707 41.1582L4.0437 41.1812L4.28386 41.1117ZM5.19987 42.5789L5.38421 42.41L5.37635 42.4014L5.36772 42.3936L5.19987 42.5789ZM5.70445 43.2232L5.94786 43.2802L5.97255 43.1748L5.91259 43.0847L5.70445 43.2232ZM5.48709 43.9529L5.72003 44.0439L5.72203 44.0384L5.48709 43.9529ZM5.02909 46.3671L4.77909 46.3665L4.77907 46.3755L4.77969 46.3844L5.02909 46.3671ZM10.0516 50.5823L10.0003 50.8271L10.0075 50.8284L10.0516 50.5823ZM15.7029 50.9394V50.6891L15.6901 50.6897L15.7029 50.9394ZM16.8673 50.9394L17.0979 50.8428L17.0337 50.6894H16.8673V50.9394ZM17.6203 53.4235L17.3749 53.4712L17.3761 53.4768L17.6203 53.4235ZM17.9153 54.6578L18.1565 54.592L18.1557 54.5891L17.9153 54.6578ZM19.2971 59.8666L19.0552 59.9299L19.0556 59.9311L19.2971 59.8666ZM19.5999 61L19.3583 61.0645L19.4359 61.3549L19.7073 61.2257L19.5999 61ZM34.7524 53.7874L34.8599 54.0131L35.1002 53.8987L34.971 53.666L34.7524 53.7874ZM33.9166 51.9929L34.1501 51.9038L34.0537 51.6513L33.8095 51.767L33.9166 51.9929ZM20.8574 58.1821L20.6158 58.2461L20.6928 58.5368L20.9645 58.408L20.8574 58.1821ZM20.5884 57.1575L20.3459 57.2181L20.3466 57.2207L20.5884 57.1575ZM20.5884 57.1572L20.8309 57.0966L20.8302 57.094L20.5884 57.1572ZM19.7629 54.0911L19.5223 54.1591L19.5228 54.1609L19.7629 54.0911ZM19.5583 53.2413L19.8023 53.1872L19.5583 53.2413ZM19.4912 52.9422L19.2446 52.9856L19.2475 52.9981L19.4912 52.9422ZM18.3966 49.6197L18.6204 49.5082L18.6163 49.5L18.6115 49.492L18.3966 49.6197ZM15.6719 48.9832V48.7332H15.6647L15.6575 48.7336L15.6719 48.9832ZM10.4708 48.6649L10.4194 48.9097L10.4261 48.9109L10.4708 48.6649ZM6.99329 46.2227L7.24266 46.2049L7.24266 46.2049L6.99329 46.2227ZM6.99307 46.2196L6.74332 46.2085L6.74268 46.223L6.74371 46.2374L6.99307 46.2196ZM7.35793 44.5506L7.58956 44.6447L7.59068 44.6419L7.35793 44.5506ZM7.6762 43.1533L7.92551 43.1719L7.92744 43.146L7.92401 43.1203L7.6762 43.1533ZM6.69809 41.298L6.51063 41.4634L6.52015 41.4742L6.53084 41.4838L6.69809 41.298ZM6.33324 40.8478L6.12703 40.7064L6.02871 40.8499L6.129 40.992L6.33324 40.8478ZM6.70585 40.4519L6.85943 40.6492L6.86112 40.6478L6.70585 40.4519ZM7.52871 39.7998L7.68398 39.9957L7.90391 39.8215L7.70548 39.623L7.52871 39.7998ZM6.75243 39.0235L6.57565 39.2003H6.57565L6.75243 39.0235ZM5.64235 37.8669H5.39235V37.9633L5.4571 38.0347L5.64235 37.8669ZM5.6897 37.3525L5.4417 37.3209L5.4417 37.3209L5.6897 37.3525ZM5.71221 37.1682L5.46448 37.134L5.46374 37.1406L5.71221 37.1682ZM5.82089 35.7942L6.07098 35.7994L6.07087 35.791L5.82089 35.7942ZM5.3152 34.4225L5.12297 34.5823L5.3152 34.4225ZM4.05874 33.675L3.97232 33.9095L3.99074 33.9163L4.01 33.9202L4.05874 33.675ZM3.91125 33.6206L3.80384 33.8464L3.81413 33.8513L3.82482 33.8552L3.91125 33.6206ZM3.24408 33.0733L3.04367 33.2227H3.04367L3.24408 33.0733ZM2.90984 32.2777L3.15686 32.2391L3.15537 32.2296L3.15315 32.2202L2.90984 32.2777ZM3.98887 30.4068L4.17249 30.5765L4.17316 30.5758L3.98887 30.4068ZM4.10936 30.2762L3.93092 30.101L3.92591 30.1064L4.10936 30.2762ZM4.1094 30.2762L4.28784 30.4515L4.29286 30.446L4.1094 30.2762ZM4.47793 29.8634L4.67067 30.0226L4.671 30.0222L4.47793 29.8634ZM6.99307 25.982L6.77344 25.8622L6.76924 25.8707L6.99307 25.982ZM7.54653 24.0688L7.79602 24.0848V24.0848L7.54653 24.0688ZM7.24148 22.1006L7.00069 22.1678L7.00403 22.1798L7.00853 22.1914L7.24148 22.1006ZM7.23306 22.0704L7.47385 22.0032L7.47385 22.0032L7.23306 22.0704ZM6.96979 20.9906L7.21561 20.945L7.21532 20.9435L6.96979 20.9906ZM7.03965 18.3124L6.79739 18.2507L6.79691 18.2526L7.03965 18.3124ZM8.10315 15.021L8.33575 15.1127L8.33673 15.1101L8.10315 15.021ZM8.7397 13.2433L8.50325 13.162L8.50192 13.1661L8.7397 13.2433ZM8.91049 12.7465L9.14695 12.8278L9.14847 12.823L8.91049 12.7465ZM12.559 6.78464L12.3944 6.59651L12.3883 6.60184L12.3825 6.60756L12.559 6.78464ZM20.1432 3.29915L20.1788 3.54672L20.1863 3.54541L20.1432 3.29915ZM35.2108 4.56448L35.1426 4.805L35.1429 4.80508L35.2108 4.56448ZM47.7943 24.3751L48.0437 24.3926L48.0437 24.3924L47.7943 24.3751ZM43.7999 33.3674L43.5893 33.2327L43.2577 33.7509L43.8568 33.6109L43.7999 33.3674ZM46.3506 33.0148L46.362 33.2645L46.4948 33.2585L46.564 33.145L46.3506 33.0148ZM49.735 24.5071L49.9843 24.5268L49.9844 24.524L49.735 24.5071ZM29.5595 11.9314L29.8061 11.9725L29.8682 11.6003L29.5012 11.6883L29.5595 11.9314ZM25.5772 12.8862L25.3307 12.8448L25.268 13.2174L25.6355 13.1293L25.5772 12.8862ZM27.8362 22.2559L27.7951 22.5025L28.0416 22.5436L28.0828 22.2971L27.8362 22.2559ZM25.9265 21.9376L25.6799 21.8967L25.639 22.1432L25.8854 22.1842L25.9265 21.9376ZM27.1608 14.4931L27.4074 14.534L27.4692 14.1613L27.1021 14.2501L27.1608 14.4931ZM23.1785 15.4557L22.9319 15.4143L22.8694 15.7876L23.2372 15.6987L23.1785 15.4557ZM24.9018 5.17774L24.9428 4.93112L24.6966 4.89025L24.6553 5.1364L24.9018 5.17774ZM26.8193 5.49602L27.0658 5.53745L27.1073 5.29041L26.8602 5.24939L26.8193 5.49602ZM22.7283 22.939L22.9055 23.1153L23.0817 22.9382L22.9047 22.7619L22.7283 22.939ZM16.6733 16.9073L16.8497 16.7302L16.5813 16.4628L16.441 16.8148L16.6733 16.9073ZM21.362 24.313L21.1856 24.4902L21.3629 24.6667L21.5393 24.4893L21.362 24.313ZM17.3875 20.354L17.5639 20.1769L17.2969 19.9109L17.1557 20.2603L17.3875 20.354ZM16.1765 23.3504L16 23.5276L16.267 23.7935L16.4082 23.4441L16.1765 23.3504ZM10.1215 17.3188L9.9447 17.142L9.76759 17.3191L9.94505 17.4959L10.1215 17.3188ZM11.4955 15.9447L11.6724 15.7681L11.4957 15.591L11.3187 15.768L11.4955 15.9447ZM15.47 19.9271L15.2931 20.1037L15.5616 20.3727L15.7023 20.0196L15.47 19.9271ZM44.1225 17.3188L44.299 17.4959L44.4764 17.3191L44.2993 17.142L44.1225 17.3188ZM42.7485 15.9447L42.9253 15.768L42.7483 15.591L42.5716 15.7681L42.7485 15.9447ZM38.0675 23.3504L37.8355 23.4436L37.9763 23.7942L38.244 23.5276L38.0675 23.3504ZM36.8643 20.354L37.0963 20.2608L36.9557 19.9106L36.688 20.1767L36.8643 20.354ZM32.882 24.313L32.7047 24.4893L32.881 24.6666L33.0583 24.4903L32.882 24.313ZM31.5157 22.939L31.3393 22.7619L31.1623 22.9382L31.3385 23.1153L31.5157 22.939ZM37.5707 16.9073L37.803 16.8148L37.6627 16.4628L37.3943 16.7302L37.5707 16.9073ZM38.774 19.9271L38.5417 20.0196L38.6824 20.3727L38.9509 20.1037L38.774 19.9271ZM48 38.9967L48.0002 38.7467H47.9998L48 38.9967ZM42.6601 40.5454L42.5265 40.3341L42.6601 40.5454ZM57.9176 50.182L57.6695 50.1519L57.9176 50.182ZM55.74 55.2902L55.5464 55.1321L55.4033 55.3073L55.5634 55.4672L55.74 55.2902ZM57.74 57.287L57.5634 57.4639L57.5641 57.4646L57.74 57.287ZM57.9589 57.6119L58.1896 57.5156L58.1896 57.5156L57.9589 57.6119ZM57.9589 58.3798L58.1896 58.4761L58.1896 58.4761L57.9589 58.3798ZM57.74 58.7047L57.5641 58.527L57.5626 58.5285L57.74 58.7047ZM56.32 58.7047L56.4974 58.5285L56.4966 58.5278L56.32 58.7047ZM54.32 56.7079L54.4966 56.531L54.337 56.3717L54.1622 56.5141L54.32 56.7079ZM41.68 56.7079L41.8378 56.5141L41.663 56.3717L41.5034 56.531L41.68 56.7079ZM39.68 58.7047L39.5034 58.5278L39.5026 58.5285L39.68 58.7047ZM38.5854 58.9232L38.4894 59.154L38.4894 59.154L38.5854 58.9232ZM38.26 58.7047L38.4374 58.5285L38.4359 58.527L38.26 58.7047ZM38.0411 58.3798L37.8104 58.4761L37.8104 58.4761L38.0411 58.3798ZM38.0411 57.6119L37.8104 57.5156L37.8104 57.5156L38.0411 57.6119ZM38.26 57.287L38.4359 57.4646L38.4366 57.4639L38.26 57.287ZM40.26 55.2902L40.4366 55.4672L40.5967 55.3073L40.4536 55.1321L40.26 55.2902ZM38.0824 50.182L37.8342 50.2122L38.0824 50.182ZM43.5554 55.6215L43.4167 55.8294V55.8294L43.5554 55.6215ZM53.6569 54.6282L53.4802 54.4512L53.6569 54.6282ZM51.0615 41.6015L51.157 41.3704L51.0615 41.6015ZM46.4393 41.147L46.3906 40.9018H46.3906L46.4393 41.147ZM42.3431 43.3328L42.1665 43.1559L42.3431 43.3328ZM40.609 52.037L40.378 52.1328L40.609 52.037ZM52.7071 50.6848L52.5305 50.5079L52.7071 50.6848ZM49 48.9805H48.75V49.2305H49V48.9805ZM48.7071 43.2827L48.8837 43.1058L48.8837 43.1057L48.7071 43.2827ZM47.2929 43.2827L47.1163 43.1057L47.1163 43.1058L47.2929 43.2827ZM47.2929 50.6848L47.4695 50.5079L47.2929 50.6848ZM37.2929 41.6995L37.1163 41.8764L37.1163 41.8764L37.2929 41.6995ZM38.7071 41.6995L38.8837 41.8764L38.8837 41.8764L38.7071 41.6995ZM41.7071 38.7043L41.8837 38.8813L41.8837 38.8813L41.7071 38.7043ZM41.7071 37.2924L41.8837 37.1155L41.8837 37.1155L41.7071 37.2924ZM54.2929 37.2924L54.1163 37.1155L54.2929 37.2924ZM54.2929 38.7043L54.1163 38.8813L54.2929 38.7043ZM56.4142 39.5816L56.5908 39.4047L56.4142 39.5816ZM19.8818 1.6283C24.5643 0.844035 29.8747 1.28036 35.6939 2.92645L35.83 2.44532C29.9585 0.78446 24.5718 0.335825 19.7992 1.13517L19.8818 1.6283ZM11.4136 5.55056C13.7839 3.43487 16.7287 2.07018 19.8752 1.62932L19.8058 1.13415C16.5613 1.58874 13.5248 2.99594 11.0806 5.17754L11.4136 5.55056ZM7.33963 12.1636C8.14909 9.6605 9.54959 7.38927 11.4226 5.54205L11.0715 5.18605C9.14132 7.08967 7.69806 9.43024 6.86388 12.0097L7.33963 12.1636ZM7.15157 12.7044L7.33788 12.1688L6.86563 12.0045L6.67932 12.5401L7.15157 12.7044ZM6.62108 14.1935C6.80222 13.6979 6.98304 13.2033 7.1523 12.7023L6.6786 12.5422C6.51164 13.0364 6.33296 13.5253 6.15147 14.0218L6.62108 14.1935ZM6.53701 14.4236L6.6211 14.1934L6.15145 14.0219L6.06736 14.2521L6.53701 14.4236ZM5.44271 17.9216C5.73299 16.735 6.09801 15.5679 6.5356 14.4274L6.06878 14.2483C5.62364 15.4085 5.25232 16.5957 4.95703 17.8027L5.44271 17.9216ZM5.36025 21.3096C5.15105 20.1863 5.17928 19.0316 5.44311 17.9199L4.95663 17.8044C4.67668 18.9841 4.64673 20.2093 4.8687 21.4012L5.36025 21.3096ZM5.66499 22.5352C5.55745 22.1665 5.45095 21.7706 5.35978 21.3071L4.86918 21.4037C4.96431 21.8872 5.07518 22.2987 5.18499 22.6752L5.66499 22.5352ZM5.9214 23.8733C5.94051 23.4013 5.84839 22.9314 5.65248 22.5015L5.1975 22.7089C5.36092 23.0674 5.43775 23.4594 5.42181 23.8531L5.9214 23.8733ZM5.54243 25.2188C5.77247 24.8062 5.90228 24.3453 5.9214 23.8733L5.42181 23.8531C5.40586 24.2468 5.29759 24.6312 5.10572 24.9753L5.54243 25.2188ZM3.23436 28.7731C4.14102 27.6783 4.91747 26.4819 5.54812 25.208L5.10002 24.9862C4.48655 26.2254 3.73124 27.3892 2.84927 28.4542L3.23436 28.7731ZM2.91018 29.1428C3.02102 29.0216 3.13573 28.8964 3.23703 28.7698L2.8466 28.4574C2.75754 28.5688 2.65455 28.6815 2.54129 28.8053L2.91018 29.1428ZM2.80801 29.2549C2.84193 29.2174 2.87594 29.1802 2.91018 29.1428L2.54129 28.8053C2.50719 28.8425 2.47225 28.8807 2.43724 28.9194L2.80801 29.2549ZM2.71923 29.3541L2.80891 29.2539L2.43633 28.9204L2.34665 29.0206L2.71923 29.3541ZM1.31362 32.6715C0.996323 31.3011 1.92991 30.235 2.71913 29.3542L2.34675 29.0205C1.59419 29.8604 0.441742 31.1224 0.826506 32.7843L1.31362 32.6715ZM2.01643 34.2023C1.66306 33.7593 1.42255 33.2372 1.31557 32.6807L0.824559 32.7751C0.946827 33.4111 1.2217 34.0078 1.62556 34.5141L2.01643 34.2023ZM3.34422 35.2238C2.82545 34.9958 2.3698 34.6453 2.01643 34.2023L1.62556 34.5141C2.02942 35.0204 2.55017 35.421 3.14307 35.6815L3.34422 35.2238ZM3.50432 35.2786L3.32578 35.2165L3.16151 35.6888L3.34006 35.7509L3.50432 35.2786ZM4.01421 35.5008C3.85028 35.4049 3.67538 35.3291 3.4933 35.2751L3.35108 35.7544C3.49462 35.797 3.63248 35.8567 3.7617 35.9324L4.01421 35.5008ZM4.13646 35.837C4.14185 35.7879 4.14185 35.7384 4.13646 35.6893L3.63945 35.7439C3.64086 35.7567 3.64086 35.7696 3.63945 35.7825L4.13646 35.837ZM4.06359 36.7995C4.0982 36.4716 4.13796 36.098 4.13796 35.8097H3.63796C3.63796 36.0659 3.60194 36.4099 3.56636 36.747L4.06359 36.7995ZM4.04351 36.9918C4.04987 36.9295 4.05665 36.8653 4.06359 36.7995L3.56636 36.747C3.55943 36.8126 3.55255 36.8777 3.5461 36.941L4.04351 36.9918ZM4.04228 37.0027L4.0432 36.9947L3.54641 36.9381L3.5455 36.9461L4.04228 37.0027ZM4.12644 38.6744C4.01839 38.5138 3.96858 38.3255 3.96133 38.0578C3.95388 37.7827 3.99138 37.4491 4.04228 37.0027L3.5455 36.9461C3.49602 37.3799 3.4529 37.7532 3.46152 38.0714C3.47034 38.397 3.53327 38.6884 3.71158 38.9535L4.12644 38.6744ZM4.87561 39.5568C4.6053 39.2753 4.35275 38.9773 4.1194 38.6644L3.71862 38.9634C3.96435 39.2928 4.23031 39.6067 4.51496 39.9031L4.87561 39.5568ZM4.53282 41.089C4.49329 40.6566 4.62163 40.2255 4.89125 39.8852L4.49933 39.5747C4.14997 40.0157 3.98367 40.5742 4.0349 41.1345L4.53282 41.089ZM5.36772 42.3936C4.96655 42.0302 4.67442 41.5623 4.52402 41.0423L4.0437 41.1812C4.21989 41.7903 4.56209 42.3384 5.03202 42.7642L5.36772 42.3936ZM5.91259 43.0847C5.75411 42.8465 5.57746 42.621 5.38421 42.41L5.01553 42.7478C5.19137 42.9397 5.35211 43.145 5.49632 43.3617L5.91259 43.0847ZM5.72203 44.0384C5.81226 43.7903 5.88767 43.5372 5.94786 43.2802L5.46104 43.1662C5.40536 43.4039 5.33561 43.638 5.25216 43.8674L5.72203 44.0384ZM5.27909 46.3678C5.28116 45.5725 5.43064 44.7846 5.71996 44.0438L5.25423 43.8619C4.94242 44.6602 4.78132 45.5094 4.77909 46.3665L5.27909 46.3678ZM10.1029 50.3377C8.53405 50.0086 7.35919 49.4989 6.56285 48.8305C5.77361 48.1681 5.34738 47.3432 5.27849 46.3498L4.77969 46.3844C4.85829 47.518 5.35195 48.467 6.24141 49.2135C7.12378 49.9541 8.38644 50.4885 10.0003 50.827L10.1029 50.3377ZM15.6901 50.6897C13.8179 50.7859 11.9409 50.6673 10.0958 50.3363L10.0075 50.8284C11.8902 51.1662 13.8055 51.2872 15.7158 51.1891L15.6901 50.6897ZM16.8673 50.6894H15.7029V51.1894H16.8673V50.6894ZM17.8657 53.3758C17.6969 52.5075 17.4396 51.6588 17.0979 50.8428L16.6367 51.036C16.9652 51.8204 17.2126 52.6364 17.3749 53.4712L17.8657 53.3758ZM18.1557 54.5891C18.0496 54.2178 17.9582 53.799 17.8646 53.3702L17.3761 53.4768C17.4688 53.9019 17.5637 54.337 17.6749 54.7265L18.1557 54.5891ZM19.2971 59.8666C19.539 59.8033 19.539 59.8033 19.539 59.8033C19.5389 59.8033 19.5389 59.8032 19.5389 59.8032C19.5389 59.8031 19.5389 59.8029 19.5388 59.8027C19.5387 59.8023 19.5385 59.8016 19.5383 59.8008C19.5379 59.7991 19.5372 59.7966 19.5363 59.7932C19.5346 59.7865 19.532 59.7766 19.5286 59.7636C19.5217 59.7375 19.5117 59.699 19.4987 59.6495C19.4727 59.5504 19.4351 59.4069 19.3885 59.2294C19.2953 58.8745 19.1663 58.3834 19.0226 57.8389C18.7354 56.7502 18.3897 55.447 18.1565 54.592L17.6741 54.7236C17.9067 55.5764 18.2519 56.8776 18.5391 57.9664C18.6827 58.5107 18.8118 59.0015 18.9049 59.3564C18.9515 59.5338 18.989 59.6772 19.015 59.7762C19.028 59.8257 19.038 59.8642 19.0449 59.8902C19.0483 59.9032 19.0509 59.9132 19.0526 59.9198C19.0535 59.9232 19.0541 59.9257 19.0546 59.9274C19.0548 59.9282 19.055 59.9288 19.0551 59.9293C19.0551 59.9295 19.0552 59.9296 19.0552 59.9297C19.0552 59.9298 19.0552 59.9298 19.0552 59.9299C19.0552 59.9299 19.0552 59.9299 19.2971 59.8666ZM19.8414 60.9355L19.5386 59.8021L19.0556 59.9311L19.3583 61.0645L19.8414 60.9355ZM34.645 53.5616L19.4924 60.7743L19.7073 61.2257L34.8599 54.0131L34.645 53.5616ZM33.683 52.0821C33.9242 52.7138 34.2091 53.3239 34.5339 53.9088L34.971 53.666C34.6576 53.1017 34.3828 52.5131 34.1501 51.9038L33.683 52.0821ZM20.9645 58.408L34.0236 52.2189L33.8095 51.767L20.7504 57.9562L20.9645 58.408ZM20.3466 57.2207C20.4432 57.5901 20.5347 57.9402 20.6158 58.2461L21.0991 58.1181C21.0183 57.8131 20.927 57.4638 20.8303 57.0942L20.3466 57.2207ZM20.3458 57.2178L20.3459 57.2181L20.831 57.0968L20.8309 57.0966L20.3458 57.2178ZM19.5228 54.1609C19.757 54.9662 20.0719 56.1705 20.3465 57.2205L20.8302 57.094C20.5564 56.0467 20.2394 54.8346 20.0029 54.0213L19.5228 54.1609ZM19.3142 53.2955C19.3777 53.5818 19.4454 53.887 19.5223 54.1591L20.0034 54.0231C19.9312 53.7673 19.8666 53.4767 19.8023 53.1872L19.3142 53.2955ZM19.2475 52.9981C19.2695 53.0943 19.2916 53.1937 19.3142 53.2955L19.8023 53.1872C19.7798 53.0857 19.7574 52.9845 19.7349 52.8864L19.2475 52.9981ZM18.1729 49.7313C18.685 50.7588 19.046 51.8548 19.245 52.9855L19.7374 52.8989C19.5301 51.7208 19.1539 50.5788 18.6204 49.5082L18.1729 49.7313ZM16.5801 49.2332C17.0719 49.2332 17.4122 49.2594 17.6632 49.3389C17.8979 49.4132 18.055 49.5342 18.1817 49.7474L18.6115 49.492C18.42 49.1697 18.1617 48.9723 17.8142 48.8623C17.483 48.7574 17.0743 48.7332 16.5801 48.7332V49.2332ZM15.6719 49.2332H16.5801V48.7332H15.6719V49.2332ZM10.4261 48.9109C12.1605 49.2264 13.9263 49.3345 15.6863 49.2328L15.6575 48.7336C13.9371 48.833 12.211 48.7274 10.5156 48.4189L10.4261 48.9109ZM6.74393 46.2405C6.76109 46.4809 6.79938 46.986 7.30533 47.5162C7.80061 48.0353 8.71793 48.552 10.4194 48.9096L10.5222 48.4203C8.8702 48.0731 8.06439 47.5875 7.66709 47.1711C7.28046 46.7659 7.25675 46.4022 7.24266 46.2049L6.74393 46.2405ZM6.74371 46.2374L6.74393 46.2405L7.24266 46.2049L7.24244 46.2018L6.74371 46.2374ZM7.12631 44.4565C6.89969 45.0144 6.77016 45.6069 6.74332 46.2085L7.24283 46.2308C7.26712 45.6862 7.38438 45.1498 7.58955 44.6447L7.12631 44.4565ZM7.42689 43.1348C7.3931 43.5889 7.29139 44.0354 7.12517 44.4594L7.59068 44.6419C7.77514 44.1714 7.88801 43.6759 7.92551 43.1719L7.42689 43.1348ZM6.53084 41.4838C7.02282 41.9267 7.34101 42.5302 7.42839 43.1863L7.92401 43.1203C7.82095 42.3464 7.44563 41.6345 6.86534 41.1122L6.53084 41.4838ZM6.129 40.992C6.23001 41.1351 6.39234 41.3294 6.51063 41.4634L6.88555 41.1326C6.77095 41.0027 6.62277 40.8244 6.53748 40.7036L6.129 40.992ZM6.55228 40.2546C6.3881 40.3824 6.24466 40.5348 6.12703 40.7064L6.53944 40.9891C6.62796 40.86 6.73589 40.7453 6.85942 40.6491L6.55228 40.2546ZM7.37344 39.6039L6.55058 40.2559L6.86112 40.6478L7.68398 39.9957L7.37344 39.6039ZM6.57565 39.2003L7.35193 39.9766L7.70548 39.623L6.9292 38.8467L6.57565 39.2003ZM5.4571 38.0347C5.6856 38.2869 6.16208 38.7867 6.57565 39.2003L6.92921 38.8467C6.51992 38.4375 6.04934 37.9437 5.82759 37.699L5.4571 38.0347ZM5.4417 37.3209C5.41998 37.4918 5.39235 37.7056 5.39235 37.8669H5.89235C5.89235 37.7445 5.91446 37.5669 5.93771 37.384L5.4417 37.3209ZM5.46374 37.1406C5.45773 37.1947 5.45004 37.2553 5.4417 37.3209L5.93771 37.384C5.94593 37.3193 5.95415 37.2546 5.96068 37.1958L5.46374 37.1406ZM5.57095 35.789C5.56165 36.2391 5.52613 36.6881 5.46456 37.134L5.95986 37.2024C6.02409 36.7373 6.06115 36.2688 6.07084 35.7994L5.57095 35.789ZM5.12297 34.5823C5.40712 34.924 5.56526 35.353 5.57091 35.7974L6.07087 35.791C6.06376 35.232 5.86484 34.6925 5.50742 34.2626L5.12297 34.5823ZM4.01 33.9202C4.44591 34.0068 4.83882 34.2406 5.12297 34.5823L5.50742 34.2626C5.15001 33.8328 4.65578 33.5387 4.10748 33.4298L4.01 33.9202ZM3.82482 33.8552L3.97232 33.9095L4.14516 33.4404L3.99767 33.386L3.82482 33.8552ZM3.04367 33.2227C3.24251 33.4894 3.50346 33.7035 3.80384 33.8464L4.01865 33.3949C3.79178 33.2869 3.59469 33.1252 3.4445 32.9238L3.04367 33.2227ZM2.66283 32.3162C2.71409 32.6449 2.84482 32.956 3.04367 33.2227L3.4445 32.9238C3.29431 32.7224 3.19557 32.4874 3.15686 32.2391L2.66283 32.3162ZM3.80526 30.2372C3.52524 30.5402 3.20807 30.8829 2.97974 31.2234C2.75819 31.5537 2.57483 31.9467 2.66653 32.3351L3.15315 32.2202C3.11289 32.0497 3.18571 31.8139 3.39499 31.5019C3.5975 31.1999 3.88582 30.8867 4.17249 30.5765L3.80526 30.2372ZM3.92591 30.1064C3.88602 30.1495 3.84534 30.1934 3.80459 30.2379L4.17316 30.5758C4.21294 30.5324 4.25279 30.4893 4.29282 30.4461L3.92591 30.1064ZM3.93104 30.101L3.931 30.1011L4.28773 30.4514L4.28776 30.4514L3.93104 30.101ZM4.28519 29.7042C4.17778 29.8342 4.05647 29.9654 3.92595 30.1064L4.29286 30.446C4.42137 30.3072 4.55266 30.1655 4.67067 30.0226L4.28519 29.7042ZM6.76924 25.8707C6.08883 27.2385 5.25537 28.5247 4.28486 29.7046L4.671 30.0222C5.66556 28.8132 6.51966 27.4951 7.21691 26.0934L6.76924 25.8707ZM7.29704 24.0528C7.25646 24.6869 7.07781 25.3045 6.77359 25.8623L7.21256 26.1017C7.55165 25.4799 7.75079 24.7916 7.79602 24.0848L7.29704 24.0528ZM7.00853 22.1914C7.23916 22.7834 7.33762 23.4187 7.29704 24.0528L7.79602 24.0848C7.84126 23.378 7.7315 22.6698 7.47443 22.0099L7.00853 22.1914ZM6.99226 22.1377L7.00069 22.1678L7.48228 22.0334L7.47385 22.0032L6.99226 22.1377ZM6.72397 21.0361C6.80154 21.455 6.90163 21.813 6.99226 22.1377L7.47385 22.0032C7.38293 21.6775 7.28862 21.3393 7.21561 20.945L6.72397 21.0361ZM6.79691 18.2526C6.57215 19.1648 6.54736 20.1149 6.72426 21.0376L7.21532 20.9435C7.052 20.0916 7.07488 19.2144 7.28239 18.3722L6.79691 18.2526ZM7.87058 14.9293C7.44342 16.0128 7.08498 17.1221 6.79739 18.2507L7.28191 18.3741C7.56431 17.2659 7.91628 16.1766 8.33573 15.1127L7.87058 14.9293ZM8.50192 13.1661C8.30977 13.7579 8.09413 14.3434 7.86958 14.9318L8.33673 15.1101C8.56242 14.5186 8.7815 13.9241 8.97748 13.3205L8.50192 13.1661ZM8.67406 12.6652L8.50328 13.162L8.97612 13.3246L9.14691 12.8277L8.67406 12.6652ZM12.3825 6.60756C10.6804 8.30381 9.40838 10.3823 8.6725 12.6699L9.14847 12.823C9.85996 10.6113 11.0898 8.60172 12.7355 6.96172L12.3825 6.60756ZM20.1077 3.05168C17.2479 3.46246 14.5685 4.6938 12.3944 6.59651L12.7236 6.97277C14.825 5.13375 17.4147 3.94363 20.1788 3.54661L20.1077 3.05168ZM35.279 4.32396C29.6968 2.74128 24.5882 2.26826 20.1002 3.05288L20.1863 3.54541C24.5789 2.77747 29.6086 3.23599 35.1426 4.805L35.279 4.32396ZM48.0437 24.3924C48.2508 21.3952 48.083 17.236 46.3503 13.3947C44.6124 9.54189 41.3067 6.02538 35.2787 4.32388L35.1429 4.80508C41.0231 6.46487 44.2149 9.87666 45.8945 13.6003C47.5794 17.3355 47.7492 21.401 47.5449 24.3579L48.0437 24.3924ZM44.0105 33.5022C44.9421 32.0461 45.8977 30.5023 46.6454 28.9612C47.3923 27.4218 47.9404 25.8682 48.0437 24.3926L47.5449 24.3577C47.4481 25.7417 46.9302 27.2288 46.1955 28.7429C45.4617 30.2554 44.5201 31.7779 43.5893 33.2327L44.0105 33.5022ZM46.3392 32.7651C45.4503 32.8056 44.5824 32.9277 43.743 33.124L43.8568 33.6109C44.6665 33.4215 45.5039 33.3037 46.362 33.2645L46.3392 32.7651ZM49.4858 24.4874C49.265 27.2797 47.8066 30.1494 46.1372 32.8846L46.564 33.145C48.2363 30.4051 49.7534 27.4471 49.9842 24.5268L49.4858 24.4874ZM35.6938 2.9264C42.4571 4.84452 45.9839 8.92665 47.7844 13.1759C49.5898 17.4368 49.6629 21.877 49.4856 24.4902L49.9844 24.524C50.1642 21.874 50.0937 17.3443 48.2448 12.9808C46.3909 8.60553 42.7527 4.40864 35.8302 2.44537L35.6938 2.9264ZM29.5012 11.6883L25.5189 12.6431L25.6355 13.1293L29.6178 12.1745L29.5012 11.6883ZM28.0828 22.2971L29.8061 11.9725L29.3129 11.8902L27.5896 22.2147L28.0828 22.2971ZM25.8854 22.1842L27.7951 22.5025L27.8773 22.0093L25.9676 21.691L25.8854 22.1842ZM26.9142 14.4522L25.6799 21.8967L26.1732 21.9785L27.4074 14.534L26.9142 14.4522ZM23.2372 15.6987L27.2196 14.7361L27.1021 14.2501L23.1198 15.2127L23.2372 15.6987ZM24.6553 5.1364L22.9319 15.4143L23.4251 15.497L25.1484 5.21908L24.6553 5.1364ZM26.8602 5.24939L24.9428 4.93112L24.8609 5.42437L26.7783 5.74264L26.8602 5.24939ZM25.8237 12.9276L27.0658 5.53745L26.5727 5.45458L25.3307 12.8448L25.8237 12.9276ZM22.9047 22.7619L16.8497 16.7302L16.4968 17.0844L22.5518 23.1161L22.9047 22.7619ZM21.5393 24.4893L22.9055 23.1153L22.551 22.7627L21.1847 24.1368L21.5393 24.4893ZM17.211 20.5311L21.1856 24.4902L21.5384 24.1359L17.5639 20.1769L17.211 20.5311ZM16.4082 23.4441L17.6192 20.4477L17.1557 20.2603L15.9447 23.2568L16.4082 23.4441ZM9.94505 17.4959L16 23.5276L16.3529 23.1733L10.2979 17.1416L9.94505 17.4959ZM11.3187 15.768L9.9447 17.142L10.2983 17.4955L11.6723 16.1215L11.3187 15.768ZM15.647 19.7504L11.6724 15.7681L11.3185 16.1213L15.2931 20.1037L15.647 19.7504ZM16.441 16.8148L15.2378 19.8345L15.7023 20.0196L16.9055 16.9999L16.441 16.8148ZM44.2993 17.142L42.9253 15.768L42.5717 16.1215L43.9457 17.4955L44.2993 17.142ZM38.244 23.5276L44.299 17.4959L43.9461 17.1416L37.8911 23.1733L38.244 23.5276ZM36.6323 20.4472L37.8355 23.4436L38.2995 23.2573L37.0963 20.2608L36.6323 20.4472ZM33.0583 24.4903L37.0406 20.5313L36.688 20.1767L32.7057 24.1357L33.0583 24.4903ZM31.3385 23.1153L32.7047 24.4893L33.0593 24.1368L31.693 22.7627L31.3385 23.1153ZM37.3943 16.7302L31.3393 22.7619L31.6922 23.1161L37.7472 17.0844L37.3943 16.7302ZM39.0062 19.8345L37.803 16.8148L37.3385 16.9999L38.5417 20.0196L39.0062 19.8345ZM42.5716 15.7681L38.597 19.7504L38.9509 20.1037L42.9255 16.1213L42.5716 15.7681ZM47.9998 38.7467C46.0617 38.7486 44.164 39.299 42.5265 40.3341L42.7937 40.7568C44.3513 39.7721 46.1566 39.2485 48.0002 39.2467L47.9998 38.7467ZM53.4735 40.3341C51.836 39.299 49.9383 38.7486 48.0002 38.7467L47.9998 39.2467C49.8434 39.2485 51.6487 39.7721 53.2063 40.7568L53.4735 40.3341ZM57.2515 44.595C56.4209 42.8466 55.1109 41.3692 53.4735 40.3341L53.2063 40.7568C54.7639 41.7414 56.0099 43.1467 56.7999 44.8096L57.2515 44.595ZM58.1658 50.2122C58.3991 48.2911 58.082 46.3434 57.2515 44.595L56.7999 44.8096C57.5898 46.4725 57.8913 48.3249 57.6695 50.1519L58.1658 50.2122ZM55.9336 55.4484C57.1585 53.9488 57.9325 52.1332 58.1658 50.2122L57.6695 50.1519C57.4476 51.9789 56.7115 53.7058 55.5464 55.1321L55.9336 55.4484ZM57.9166 57.1101L55.9166 55.1133L55.5634 55.4672L57.5634 57.4639L57.9166 57.1101ZM58.1896 57.5156C58.1261 57.3635 58.0331 57.2254 57.9159 57.1093L57.5641 57.4646C57.6344 57.5342 57.6901 57.617 57.7282 57.7082L58.1896 57.5156ZM58.2858 57.9958C58.2858 57.831 58.2531 57.6678 58.1896 57.5156L57.7282 57.7082C57.7662 57.7993 57.7858 57.8971 57.7858 57.9958H58.2858ZM58.1896 58.4761C58.2531 58.3239 58.2858 58.1607 58.2858 57.9958H57.7858C57.7858 58.0946 57.7662 58.1923 57.7282 58.2835L58.1896 58.4761ZM57.9159 58.8823C58.0331 58.7663 58.1261 58.6282 58.1896 58.4761L57.7282 58.2835C57.6901 58.3747 57.6344 58.4574 57.5641 58.527L57.9159 58.8823ZM57.5106 59.154C57.6629 59.0907 57.8011 58.9979 57.9174 58.8809L57.5626 58.5285C57.4929 58.5987 57.41 58.6544 57.3186 58.6924L57.5106 59.154ZM57.03 59.25C57.195 59.25 57.3583 59.2174 57.5106 59.154L57.3186 58.6924C57.2271 58.7304 57.1291 58.75 57.03 58.75V59.25ZM56.5494 59.154C56.7017 59.2174 56.865 59.25 57.03 59.25V58.75C56.9309 58.75 56.8329 58.7304 56.7414 58.6924L56.5494 59.154ZM56.1426 58.8809C56.2589 58.9979 56.3971 59.0907 56.5494 59.154L56.7414 58.6924C56.65 58.6544 56.5671 58.5987 56.4974 58.5285L56.1426 58.8809ZM54.1434 56.8849L56.1434 58.8816L56.4966 58.5278L54.4966 56.531L54.1434 56.8849ZM48 59.2046C50.3604 59.2046 52.6485 58.3912 54.4778 56.9018L54.1622 56.5141C52.4221 57.9308 50.2455 58.7046 48 58.7046V59.2046ZM41.5222 56.9018C43.3515 58.3912 45.6396 59.2046 48 59.2046V58.7046C45.7545 58.7046 43.5779 57.9308 41.8378 56.5141L41.5222 56.9018ZM39.8566 58.8816L41.8566 56.8849L41.5034 56.531L39.5034 58.5278L39.8566 58.8816ZM39.4506 59.154C39.6029 59.0907 39.7411 58.9979 39.8574 58.8809L39.5026 58.5285C39.4329 58.5987 39.35 58.6544 39.2586 58.6924L39.4506 59.154ZM38.97 59.25C39.135 59.25 39.2983 59.2174 39.4506 59.154L39.2586 58.6924C39.1671 58.7304 39.0691 58.75 38.97 58.75V59.25ZM38.4894 59.154C38.6417 59.2174 38.805 59.25 38.97 59.25V58.75C38.8709 58.75 38.7729 58.7304 38.6814 58.6924L38.4894 59.154ZM38.0826 58.8809C38.1989 58.9979 38.3371 59.0907 38.4894 59.154L38.6814 58.6924C38.59 58.6544 38.5071 58.5986 38.4374 58.5285L38.0826 58.8809ZM37.8104 58.4761C37.8739 58.6282 37.9669 58.7663 38.0841 58.8823L38.4359 58.527C38.3656 58.4574 38.3099 58.3747 38.2718 58.2835L37.8104 58.4761ZM37.7142 57.9958C37.7142 58.1607 37.7469 58.3239 37.8104 58.4761L38.2718 58.2835C38.2338 58.1923 38.2142 58.0946 38.2142 57.9958H37.7142ZM37.8104 57.5156C37.7469 57.6678 37.7142 57.831 37.7142 57.9958H38.2142C38.2142 57.8971 38.2338 57.7993 38.2718 57.7082L37.8104 57.5156ZM38.0841 57.1093C37.9669 57.2254 37.8739 57.3635 37.8104 57.5156L38.2718 57.7082C38.3099 57.617 38.3656 57.5342 38.4359 57.4646L38.0841 57.1093ZM40.0834 55.1133L38.0834 57.1101L38.4366 57.4639L40.4366 55.4672L40.0834 55.1133ZM37.8342 50.2122C38.0675 52.1332 38.8415 53.9488 40.0664 55.4484L40.4536 55.1321C39.2885 53.7058 38.5524 51.9789 38.3305 50.1519L37.8342 50.2122ZM38.7485 44.595C37.918 46.3434 37.6009 48.2911 37.8342 50.2122L38.3305 50.1519C38.1087 48.3249 38.4102 46.4725 39.2001 44.8096L38.7485 44.595ZM42.5265 40.3341C40.8891 41.3692 39.5791 42.8466 38.7485 44.595L39.2001 44.8096C39.9901 43.1467 41.2361 41.7414 42.7937 40.7568L42.5265 40.3341ZM48 56.7175C46.4671 56.7175 44.9687 56.2637 43.6942 55.4135L43.4167 55.8294C44.7734 56.7345 46.3684 57.2175 48 57.2175V56.7175ZM53.4802 54.4512C52.0268 55.9023 50.0556 56.7175 48 56.7175V57.2175C50.1879 57.2175 52.2863 56.3498 53.8335 54.8051L53.4802 54.4512ZM55.75 48.9805C55.75 51.0324 54.9336 53.0003 53.4802 54.4512L53.8335 54.8051C55.3807 53.2604 56.25 51.1652 56.25 48.9805H55.75ZM54.444 44.6822C55.2955 45.9545 55.75 47.4504 55.75 48.9805H56.25C56.25 47.3513 55.7661 45.7587 54.8595 44.4041L54.444 44.6822ZM50.9659 41.8325C52.3821 42.4181 53.5925 43.4099 54.444 44.6822L54.8595 44.4041C53.9529 43.0495 52.6645 41.9938 51.157 41.3704L50.9659 41.8325ZM46.488 41.3922C47.9914 41.0936 49.5498 41.2469 50.9659 41.8325L51.157 41.3704C49.6496 40.7471 47.9908 40.584 46.3906 40.9018L46.488 41.3922ZM42.5198 43.5098C43.6036 42.4277 44.9845 41.6907 46.488 41.3922L46.3906 40.9018C44.7903 41.2196 43.3203 42.004 42.1665 43.1559L42.5198 43.5098ZM40.3989 47.4712C40.6979 45.9704 41.436 44.5918 42.5198 43.5098L42.1665 43.1559C41.0127 44.3079 40.2269 45.7756 39.9085 47.3735L40.3989 47.4712ZM40.8399 51.9412C40.2534 50.5275 40.0999 48.9719 40.3989 47.4712L39.9085 47.3735C39.5902 48.9714 39.7536 50.6276 40.378 52.1328L40.8399 51.9412ZM43.6942 55.4135C42.4197 54.5633 41.4264 53.3549 40.8399 51.9412L40.378 52.1328C41.0025 53.638 42.06 54.9244 43.4167 55.8294L43.6942 55.4135ZM52.75 49.9789C52.75 50.1772 52.6711 50.3675 52.5305 50.5079L52.8837 50.8618C53.1182 50.6277 53.25 50.3101 53.25 49.9789H52.75ZM52.5305 49.4498C52.6711 49.5902 52.75 49.7805 52.75 49.9789H53.25C53.25 49.6477 53.1182 49.3301 52.8837 49.096L52.5305 49.4498ZM52 49.2305C52.199 49.2305 52.3899 49.3094 52.5305 49.4498L52.8837 49.096C52.6493 48.8619 52.3314 48.7305 52 48.7305V49.2305ZM49 49.2305H52V48.7305H49V49.2305ZM48.75 43.9886V48.9805H49.25V43.9886H48.75ZM48.5305 43.4596C48.6711 43.6 48.75 43.7903 48.75 43.9886H49.25C49.25 43.6574 49.1182 43.3398 48.8837 43.1058L48.5305 43.4596ZM48 43.2403C48.199 43.2403 48.3899 43.3192 48.5305 43.4596L48.8837 43.1057C48.6493 42.8717 48.3314 42.7403 48 42.7403V43.2403ZM47.4695 43.4596C47.6101 43.3192 47.801 43.2403 48 43.2403V42.7403C47.6686 42.7403 47.3507 42.8717 47.1163 43.1057L47.4695 43.4596ZM47.25 43.9886C47.25 43.7903 47.3289 43.6 47.4695 43.4596L47.1163 43.1058C46.8818 43.3398 46.75 43.6574 46.75 43.9886H47.25ZM47.25 49.9789V43.9886H46.75V49.9789H47.25ZM47.4695 50.5079C47.3289 50.3675 47.25 50.1772 47.25 49.9789H46.75C46.75 50.3101 46.8818 50.6277 47.1163 50.8618L47.4695 50.5079ZM48 50.7273C47.801 50.7273 47.6101 50.6483 47.4695 50.5079L47.1163 50.8618C47.3507 51.0958 47.6686 51.2273 48 51.2273V50.7273ZM52 50.7273H48V51.2273H52V50.7273ZM52.5305 50.5079C52.3899 50.6483 52.199 50.7273 52 50.7273V51.2273C52.3314 51.2273 52.6493 51.0958 52.8837 50.8618L52.5305 50.5079ZM38 41.7419C37.801 41.7419 37.6101 41.6629 37.4695 41.5225L37.1163 41.8764C37.3507 42.1105 37.6686 42.2419 38 42.2419V41.7419ZM38.5305 41.5225C38.3899 41.6629 38.199 41.7419 38 41.7419V42.2419C38.3314 42.2419 38.6493 42.1105 38.8837 41.8764L38.5305 41.5225ZM38.75 40.9935C38.75 41.1918 38.6711 41.3822 38.5305 41.5225L38.8837 41.8764C39.1182 41.6423 39.25 41.3247 39.25 40.9935H38.75ZM39.4092 39.4047C38.9871 39.826 38.75 40.3975 38.75 40.9935H39.25C39.25 40.5304 39.4343 40.0861 39.7624 39.7585L39.4092 39.4047ZM41 38.7467C40.4034 38.7467 39.8311 38.9834 39.4092 39.4047L39.7624 39.7585C40.0906 39.4309 40.5357 39.2467 41 39.2467V38.7467ZM41.5305 38.5274C41.3899 38.6678 41.199 38.7467 41 38.7467V39.2467C41.3314 39.2467 41.6493 39.1153 41.8837 38.8813L41.5305 38.5274ZM41.75 37.9984C41.75 38.1967 41.6711 38.387 41.5305 38.5274L41.8837 38.8813C42.1182 38.6472 42.25 38.3296 42.25 37.9984H41.75ZM41.5305 37.4693C41.6711 37.6097 41.75 37.8 41.75 37.9984H42.25C42.25 37.6672 42.1182 37.3496 41.8837 37.1155L41.5305 37.4693ZM41 37.25C41.199 37.25 41.3899 37.3289 41.5305 37.4693L41.8837 37.1155C41.6493 36.8814 41.3314 36.75 41 36.75V37.25ZM38.3482 38.3466C39.0514 37.6445 40.0053 37.25 41 37.25V36.75C39.873 36.75 38.792 37.197 37.9949 37.9927L38.3482 38.3466ZM37.25 40.9935C37.25 40.0008 37.645 39.0487 38.3482 38.3466L37.9949 37.9927C37.1979 38.7885 36.75 39.8679 36.75 40.9935H37.25ZM37.4695 41.5225C37.3289 41.3822 37.25 41.1918 37.25 40.9935H36.75C36.75 41.3247 36.8818 41.6423 37.1163 41.8764L37.4695 41.5225ZM58.75 40.9935C58.75 41.1919 58.6711 41.3822 58.5305 41.5225L58.8837 41.8764C59.1182 41.6423 59.25 41.3247 59.25 40.9935H58.75ZM57.6518 38.3466C58.355 39.0487 58.75 40.0008 58.75 40.9935H59.25C59.25 39.8679 58.8021 38.7885 58.0051 37.9927L57.6518 38.3466ZM55 37.25C55.9947 37.25 56.9486 37.6445 57.6518 38.3466L58.0051 37.9927C57.208 37.197 56.127 36.75 55 36.75V37.25ZM54.4695 37.4693C54.6101 37.3289 54.801 37.25 55 37.25V36.75C54.6686 36.75 54.3507 36.8814 54.1163 37.1155L54.4695 37.4693ZM54.25 37.9984C54.25 37.8 54.3289 37.6097 54.4695 37.4693L54.1163 37.1155C53.8818 37.3496 53.75 37.6672 53.75 37.9984H54.25ZM54.4695 38.5274C54.3289 38.387 54.25 38.1967 54.25 37.9984H53.75C53.75 38.3296 53.8818 38.6472 54.1163 38.8813L54.4695 38.5274ZM55 38.7467C54.801 38.7467 54.6101 38.6678 54.4695 38.5274L54.1163 38.8813C54.3507 39.1153 54.6686 39.2467 55 39.2467V38.7467ZM56.5908 39.4047C56.1689 38.9834 55.5966 38.7467 55 38.7467V39.2467C55.4643 39.2467 55.9094 39.4309 56.2376 39.7585L56.5908 39.4047ZM57.25 40.9935C57.25 40.3975 57.0129 39.826 56.5908 39.4047L56.2376 39.7585C56.5657 40.0861 56.75 40.5304 56.75 40.9935H57.25ZM57.4695 41.5225C57.3289 41.3822 57.25 41.1919 57.25 40.9935H56.75C56.75 41.3247 56.8818 41.6423 57.1163 41.8764L57.4695 41.5225ZM58 41.7419C57.801 41.7419 57.6101 41.6629 57.4695 41.5225L57.1163 41.8764C57.3507 42.1105 57.6686 42.2419 58 42.2419V41.7419ZM58.5305 41.5225C58.3899 41.6629 58.199 41.7419 58 41.7419V42.2419C58.3314 42.2419 58.6493 42.1105 58.8837 41.8764L58.5305 41.5225Z" fill="#5FB1AC"/>
</svg>
