<svg width="60" height="62" viewBox="0 0 60 62" fill="none" xmlns="http://www.w3.org/2000/svg">
<path d="M30.8699 60.9911L30.872 61.0661C30.872 61.0661 30.8719 61.0661 30.8719 61.0661C19.1126 61.4039 9.30973 52.0975 8.93309 40.3488C5.61833 40.3096 2.925 37.5921 2.925 34.2684C2.925 30.9454 5.61712 28.2285 8.93086 28.188V22.3242C8.93086 16.7031 11.2333 11.2182 15.2284 7.22298C19.2241 3.15967 24.6419 0.925 30.33 0.925C42.1807 0.925 51.7292 10.4735 51.7292 22.3242V28.1876V28.2626H51.7217C55.0283 28.2626 57.6601 30.9618 57.6601 34.2684C57.6601 37.575 54.9608 40.2743 51.6542 40.2743H51.5867M30.8699 60.9911C36.3359 60.8561 41.532 58.6293 45.3784 54.7828C49.2249 50.9364 51.4518 45.7403 51.5867 40.2743M30.8699 60.9911C19.1281 61.3285 9.34327 52.0161 9.00586 40.2743L30.8699 60.9911ZM51.5867 40.2743V40.3493H51.6542C51.6561 40.3493 51.6579 40.3493 51.6598 40.3493C51.6605 40.3249 51.6611 40.3005 51.6617 40.2761L51.6542 40.2759L51.5867 40.2743ZM49.2848 39.6594H49.2174V39.7344C49.2174 50.2201 40.7483 58.6892 30.2626 58.6892C19.7772 58.6892 11.3752 50.2205 11.3752 39.7344V22.3242C11.3752 11.8385 19.8443 3.36937 30.33 3.36937C40.8157 3.36937 49.2848 11.8385 49.2848 22.3242V39.6594ZM5.30189 34.2684C5.30189 32.3104 6.91384 30.6738 8.86338 30.6327V37.9041C6.91298 37.8647 5.30189 36.2921 5.30189 34.2684ZM51.7292 30.6319C53.7089 30.6361 55.3582 32.2879 55.3582 34.2684C55.3582 36.3154 53.7098 37.9009 51.7292 37.9049V30.6319Z" fill="#5FB1AC" stroke="#5FB1AC" stroke-width="0.15"/>
<path d="M33.7717 45.7329C33.123 45.7329 32.5495 46.3063 32.5495 46.955C32.5495 48.1958 31.5034 49.2419 30.2627 49.2419C29.0219 49.2419 27.9758 48.1958 27.9758 46.955C27.9758 46.3063 27.4024 45.7329 26.7536 45.7329C26.1049 45.7329 25.5314 46.3063 25.5314 46.955C25.5314 49.5608 27.657 51.6863 30.2627 51.6863C32.8684 51.6863 34.9939 49.5608 34.9939 46.955C34.9939 46.3092 34.4908 45.7329 33.7717 45.7329Z" fill="#5FB1AC" stroke="#5FB1AC" stroke-width="0.15"/>
<path d="M28.9729 34.5383V42.8385C28.9729 43.4873 29.5463 44.0607 30.195 44.0607C30.8438 44.0607 31.4172 43.4873 31.4172 42.8385V34.5383C31.4172 33.8895 30.8438 33.3161 30.195 33.3161C29.5463 33.3161 28.9729 33.8895 28.9729 34.5383Z" fill="#5FB1AC" stroke="#5FB1AC" stroke-width="0.15"/>
<path d="M27.9855 24.7418L27.9855 24.7419L27.9871 24.7432C29.364 25.9136 31.3631 25.9152 32.6744 24.742L32.675 24.7415L37.2637 20.5576L37.2637 20.5576L37.2646 20.5568C38.4249 19.4647 39.1091 18.0296 39.1776 16.5242C39.2461 15.0166 38.6293 13.5804 37.6053 12.4881L37.6053 12.4881L37.6036 12.4863C36.5821 11.4648 35.4844 10.9123 34.3115 10.9123C32.7658 10.9123 31.3521 11.5071 30.33 12.4374C29.308 11.5071 27.8943 10.9123 26.3486 10.9123C25.3157 10.9123 24.286 11.3256 23.3966 12.1464C22.1667 13.2399 21.4834 14.7435 21.415 16.3151C21.3465 17.8924 22.0328 19.3979 23.3294 20.5581L27.9855 24.7418ZM30.7654 15.5096L30.7658 15.5106L30.7765 15.5035L30.7805 15.5009C30.9813 15.367 31.198 15.2225 31.3419 14.9348L31.3419 14.9348L31.3428 14.933C31.7991 13.955 32.9812 13.3567 34.244 13.3567C34.8839 13.3567 35.4033 13.8049 35.8091 14.2106C36.4051 14.8734 36.7333 15.6653 36.7333 16.4533C36.7333 17.3076 36.3389 18.1637 35.6136 18.7571L35.6136 18.7571L35.611 18.7593L31.0233 22.8748C30.6464 23.1879 30.0134 23.1879 29.6366 22.8746L24.982 18.7597C24.9818 18.7596 24.9817 18.7594 24.9816 18.7593C24.2511 18.0951 23.7919 17.2369 23.7919 16.3183C23.7919 15.3958 24.1868 14.5401 24.9112 13.9473C25.2493 13.6769 25.7029 13.3567 26.2137 13.3567C27.4738 13.3567 28.6587 14.0207 29.1158 14.9348C29.4034 15.51 30.1209 15.7961 30.7654 15.5096Z" fill="#5FB1AC" stroke="#5FB1AC" stroke-width="0.15"/>
<path d="M27.1658 31.6367C27.1658 30.9879 26.5923 30.4145 25.9436 30.4145C25.2948 30.4145 24.7214 30.9879 24.7214 31.6367C24.7214 32.8774 23.6753 33.9235 22.4345 33.9235C21.1938 33.9235 20.1477 32.8774 20.1477 31.6367C20.1477 30.9879 19.5743 30.4145 18.9255 30.4145C18.2768 30.4145 17.7033 30.9879 17.7033 31.6367C17.7033 34.2424 19.8288 36.3679 22.4345 36.3679C25.0403 36.3679 27.1658 34.2424 27.1658 31.6367Z" fill="#5FB1AC" stroke="#5FB1AC" stroke-width="0.15"/>
<path d="M41.6672 30.4145C41.0185 30.4145 40.445 30.9879 40.445 31.6367C40.445 32.8774 39.3989 33.9235 38.1582 33.9235C36.9175 33.9235 35.8713 32.8774 35.8713 31.6367C35.8713 30.9879 35.2979 30.4145 34.6491 30.4145C34.0004 30.4145 33.427 30.9879 33.427 31.6367C33.427 34.2424 35.5525 36.3679 38.1582 36.3679C40.7639 36.3679 42.8894 34.2424 42.8894 31.6367C42.8894 30.9879 42.316 30.4145 41.6672 30.4145Z" fill="#5FB1AC" stroke="#5FB1AC" stroke-width="0.15"/>
</svg>
